STARTFONT 2.1
FONT -Press Start 2P-Regular-R-Regular--8-8-75-75-c-80-iso10646-1
SIZE 8 75 75
FONTBOUNDINGBOX 14 11 -6 -4
STARTPROPERTIES 9
FAMILY_NAME "Press Start 2P"
WEIGHT_NAME "Regular"
COPYRIGHT "Copyright 2012 The Press Start 2P Project Authors (cody@zone38.net), with Reserved Font Name ""Press Start 2P"""
FOUNDRY "FreeType"
FONT_ASCENT 7
FONT_DESCENT 1
POINT_SIZE 8
X_HEIGHT 5
CAP_HEIGHT 7
ENDPROPERTIES
CHARS 654
STARTCHAR U+0020
ENCODING 32
SWIDTH 571 0
DWIDTH 8 0
BBX 0 0 0 0
BITMAP
ENDCHAR
STARTCHAR U+0021
ENCODING 33
SWIDTH 571 0
DWIDTH 8 0
BBX 3 7 2 0
BITMAP
E0
E0
E0
C0
C0
00
C0
ENDCHAR
STARTCHAR U+0022
ENCODING 34
SWIDTH 571 0
DWIDTH 8 0
BBX 5 3 1 4
BITMAP
D8
D8
D8
ENDCHAR
STARTCHAR U+0023
ENCODING 35
SWIDTH 571 0
DWIDTH 8 0
BBX 7 7 0 0
BITMAP
6C
FE
6C
6C
6C
FE
6C
ENDCHAR
STARTCHAR U+0024
ENCODING 36
SWIDTH 571 0
DWIDTH 8 0
BBX 7 7 0 0
BITMAP
10
7C
D0
7C
16
FC
10
ENDCHAR
STARTCHAR U+0025
ENCODING 37
SWIDTH 571 0
DWIDTH 8 0
BBX 7 7 0 0
BITMAP
62
A4
C8
10
26
4A
8C
ENDCHAR
STARTCHAR U+0026
ENCODING 38
SWIDTH 571 0
DWIDTH 8 0
BBX 7 7 0 0
BITMAP
70
D8
D8
70
DA
CC
7E
ENDCHAR
STARTCHAR U+0027
ENCODING 39
SWIDTH 571 0
DWIDTH 8 0
BBX 2 3 2 4
BITMAP
C0
C0
C0
ENDCHAR
STARTCHAR U+0028
ENCODING 40
SWIDTH 571 0
DWIDTH 8 0
BBX 4 7 2 0
BITMAP
30
60
C0
C0
C0
60
30
ENDCHAR
STARTCHAR U+0029
ENCODING 41
SWIDTH 571 0
DWIDTH 8 0
BBX 4 7 1 0
BITMAP
C0
60
30
30
30
60
C0
ENDCHAR
STARTCHAR U+002A
ENCODING 42
SWIDTH 571 0
DWIDTH 8 0
BBX 7 5 0 1
BITMAP
6C
38
FE
38
6C
ENDCHAR
STARTCHAR U+002B
ENCODING 43
SWIDTH 571 0
DWIDTH 8 0
BBX 6 5 1 1
BITMAP
30
30
FC
30
30
ENDCHAR
STARTCHAR U+002C
ENCODING 44
SWIDTH 571 0
DWIDTH 8 0
BBX 3 3 1 -1
BITMAP
60
60
C0
ENDCHAR
STARTCHAR U+002D
ENCODING 45
SWIDTH 571 0
DWIDTH 8 0
BBX 6 1 1 3
BITMAP
FC
ENDCHAR
STARTCHAR U+002E
ENCODING 46
SWIDTH 571 0
DWIDTH 8 0
BBX 2 2 2 0
BITMAP
C0
C0
ENDCHAR
STARTCHAR U+002F
ENCODING 47
SWIDTH 571 0
DWIDTH 8 0
BBX 7 7 0 0
BITMAP
02
04
08
10
20
40
80
ENDCHAR
STARTCHAR U+0030
ENCODING 48
SWIDTH 571 0
DWIDTH 8 0
BBX 7 7 0 0
BITMAP
38
4C
C6
C6
C6
64
38
ENDCHAR
STARTCHAR U+0031
ENCODING 49
SWIDTH 571 0
DWIDTH 8 0
BBX 6 7 1 0
BITMAP
30
70
30
30
30
30
FC
ENDCHAR
STARTCHAR U+0032
ENCODING 50
SWIDTH 571 0
DWIDTH 8 0
BBX 7 7 0 0
BITMAP
7C
C6
0E
3C
78
E0
FE
ENDCHAR
STARTCHAR U+0033
ENCODING 51
SWIDTH 571 0
DWIDTH 8 0
BBX 7 7 0 0
BITMAP
7E
0C
18
3C
06
C6
7C
ENDCHAR
STARTCHAR U+0034
ENCODING 52
SWIDTH 571 0
DWIDTH 8 0
BBX 7 7 0 0
BITMAP
1C
3C
6C
CC
FE
0C
0C
ENDCHAR
STARTCHAR U+0035
ENCODING 53
SWIDTH 571 0
DWIDTH 8 0
BBX 7 7 0 0
BITMAP
FC
C0
FC
06
06
C6
7C
ENDCHAR
STARTCHAR U+0036
ENCODING 54
SWIDTH 571 0
DWIDTH 8 0
BBX 7 7 0 0
BITMAP
3C
60
C0
FC
C6
C6
7C
ENDCHAR
STARTCHAR U+0037
ENCODING 55
SWIDTH 571 0
DWIDTH 8 0
BBX 7 7 0 0
BITMAP
FE
C6
0C
18
30
30
30
ENDCHAR
STARTCHAR U+0038
ENCODING 56
SWIDTH 571 0
DWIDTH 8 0
BBX 7 7 0 0
BITMAP
78
C4
E4
78
9E
86
7C
ENDCHAR
STARTCHAR U+0039
ENCODING 57
SWIDTH 571 0
DWIDTH 8 0
BBX 7 7 0 0
BITMAP
7C
C6
C6
7E
06
0C
78
ENDCHAR
STARTCHAR U+003A
ENCODING 58
SWIDTH 571 0
DWIDTH 8 0
BBX 2 5 2 1
BITMAP
C0
C0
00
C0
C0
ENDCHAR
STARTCHAR U+003B
ENCODING 59
SWIDTH 571 0
DWIDTH 8 0
BBX 3 6 1 0
BITMAP
60
60
00
60
60
C0
ENDCHAR
STARTCHAR U+003C
ENCODING 60
SWIDTH 571 0
DWIDTH 8 0
BBX 5 7 1 0
BITMAP
18
30
60
C0
60
30
18
ENDCHAR
STARTCHAR U+003D
ENCODING 61
SWIDTH 571 0
DWIDTH 8 0
BBX 7 3 0 2
BITMAP
FE
00
FE
ENDCHAR
STARTCHAR U+003E
ENCODING 62
SWIDTH 571 0
DWIDTH 8 0
BBX 5 7 1 0
BITMAP
C0
60
30
18
30
60
C0
ENDCHAR
STARTCHAR U+003F
ENCODING 63
SWIDTH 571 0
DWIDTH 8 0
BBX 7 7 0 0
BITMAP
7C
FE
C6
0C
38
00
38
ENDCHAR
STARTCHAR U+0040
ENCODING 64
SWIDTH 571 0
DWIDTH 8 0
BBX 7 7 0 0
BITMAP
7C
82
BA
AA
BE
80
7C
ENDCHAR
STARTCHAR U+0041
ENCODING 65
SWIDTH 571 0
DWIDTH 8 0
BBX 7 7 0 0
BITMAP
38
6C
C6
C6
FE
C6
C6
ENDCHAR
STARTCHAR U+0042
ENCODING 66
SWIDTH 571 0
DWIDTH 8 0
BBX 7 7 0 0
BITMAP
FC
C6
C6
FC
C6
C6
FC
ENDCHAR
STARTCHAR U+0043
ENCODING 67
SWIDTH 571 0
DWIDTH 8 0
BBX 7 7 0 0
BITMAP
3C
66
C0
C0
C0
66
3C
ENDCHAR
STARTCHAR U+0044
ENCODING 68
SWIDTH 571 0
DWIDTH 8 0
BBX 7 7 0 0
BITMAP
F8
CC
C6
C6
C6
CC
F8
ENDCHAR
STARTCHAR U+0045
ENCODING 69
SWIDTH 571 0
DWIDTH 8 0
BBX 7 7 0 0
BITMAP
FE
C0
C0
FC
C0
C0
FE
ENDCHAR
STARTCHAR U+0046
ENCODING 70
SWIDTH 571 0
DWIDTH 8 0
BBX 7 7 0 0
BITMAP
FE
C0
C0
FC
C0
C0
C0
ENDCHAR
STARTCHAR U+0047
ENCODING 71
SWIDTH 571 0
DWIDTH 8 0
BBX 7 7 0 0
BITMAP
3E
60
C0
CE
C6
66
3E
ENDCHAR
STARTCHAR U+0048
ENCODING 72
SWIDTH 571 0
DWIDTH 8 0
BBX 7 7 0 0
BITMAP
C6
C6
C6
FE
C6
C6
C6
ENDCHAR
STARTCHAR U+0049
ENCODING 73
SWIDTH 571 0
DWIDTH 8 0
BBX 6 7 1 0
BITMAP
FC
30
30
30
30
30
FC
ENDCHAR
STARTCHAR U+004A
ENCODING 74
SWIDTH 571 0
DWIDTH 8 0
BBX 7 7 0 0
BITMAP
06
06
06
06
06
C6
7C
ENDCHAR
STARTCHAR U+004B
ENCODING 75
SWIDTH 571 0
DWIDTH 8 0
BBX 7 7 0 0
BITMAP
C6
CC
D8
F0
F8
DC
CE
ENDCHAR
STARTCHAR U+004C
ENCODING 76
SWIDTH 571 0
DWIDTH 8 0
BBX 6 7 1 0
BITMAP
C0
C0
C0
C0
C0
C0
FC
ENDCHAR
STARTCHAR U+004D
ENCODING 77
SWIDTH 571 0
DWIDTH 8 0
BBX 7 7 0 0
BITMAP
C6
EE
FE
D6
D6
C6
C6
ENDCHAR
STARTCHAR U+004E
ENCODING 78
SWIDTH 571 0
DWIDTH 8 0
BBX 7 7 0 0
BITMAP
C6
E6
F6
DE
CE
C6
C6
ENDCHAR
STARTCHAR U+004F
ENCODING 79
SWIDTH 571 0
DWIDTH 8 0
BBX 7 7 0 0
BITMAP
7C
C6
C6
C6
C6
C6
7C
ENDCHAR
STARTCHAR U+0050
ENCODING 80
SWIDTH 571 0
DWIDTH 8 0
BBX 7 7 0 0
BITMAP
FC
C6
C6
C6
FC
C0
C0
ENDCHAR
STARTCHAR U+0051
ENCODING 81
SWIDTH 571 0
DWIDTH 8 0
BBX 7 7 0 0
BITMAP
7C
C6
C6
C6
DE
CC
7A
ENDCHAR
STARTCHAR U+0052
ENCODING 82
SWIDTH 571 0
DWIDTH 8 0
BBX 7 7 0 0
BITMAP
FC
C6
C6
CE
F8
DC
CE
ENDCHAR
STARTCHAR U+0053
ENCODING 83
SWIDTH 571 0
DWIDTH 8 0
BBX 7 7 0 0
BITMAP
7C
C6
C0
7C
06
C6
7C
ENDCHAR
STARTCHAR U+0054
ENCODING 84
SWIDTH 571 0
DWIDTH 8 0
BBX 6 7 1 0
BITMAP
FC
30
30
30
30
30
30
ENDCHAR
STARTCHAR U+0055
ENCODING 85
SWIDTH 571 0
DWIDTH 8 0
BBX 7 7 0 0
BITMAP
C6
C6
C6
C6
C6
C6
7C
ENDCHAR
STARTCHAR U+0056
ENCODING 86
SWIDTH 571 0
DWIDTH 8 0
BBX 7 7 0 0
BITMAP
C6
C6
C6
EE
7C
38
10
ENDCHAR
STARTCHAR U+0057
ENCODING 87
SWIDTH 571 0
DWIDTH 8 0
BBX 7 7 0 0
BITMAP
D6
D6
D6
D6
FE
EE
44
ENDCHAR
STARTCHAR U+0058
ENCODING 88
SWIDTH 571 0
DWIDTH 8 0
BBX 7 7 0 0
BITMAP
C6
C6
6C
38
6C
C6
C6
ENDCHAR
STARTCHAR U+0059
ENCODING 89
SWIDTH 571 0
DWIDTH 8 0
BBX 6 7 1 0
BITMAP
CC
CC
CC
78
30
30
30
ENDCHAR
STARTCHAR U+005A
ENCODING 90
SWIDTH 571 0
DWIDTH 8 0
BBX 7 7 0 0
BITMAP
FE
0E
1C
38
70
E0
FE
ENDCHAR
STARTCHAR U+005B
ENCODING 91
SWIDTH 571 0
DWIDTH 8 0
BBX 4 7 2 0
BITMAP
F0
C0
C0
C0
C0
C0
F0
ENDCHAR
STARTCHAR U+005C
ENCODING 92
SWIDTH 571 0
DWIDTH 8 0
BBX 7 7 0 0
BITMAP
80
40
20
10
08
04
02
ENDCHAR
STARTCHAR U+005D
ENCODING 93
SWIDTH 571 0
DWIDTH 8 0
BBX 4 7 1 0
BITMAP
F0
30
30
30
30
30
F0
ENDCHAR
STARTCHAR U+005E
ENCODING 94
SWIDTH 571 0
DWIDTH 8 0
BBX 5 2 1 5
BITMAP
70
D8
ENDCHAR
STARTCHAR U+005F
ENCODING 95
SWIDTH 571 0
DWIDTH 8 0
BBX 7 1 0 -1
BITMAP
FE
ENDCHAR
STARTCHAR U+0060
ENCODING 96
SWIDTH 571 0
DWIDTH 8 0
BBX 2 2 3 5
BITMAP
80
40
ENDCHAR
STARTCHAR U+0061
ENCODING 97
SWIDTH 571 0
DWIDTH 8 0
BBX 7 5 0 0
BITMAP
7C
06
7E
C6
7E
ENDCHAR
STARTCHAR U+0062
ENCODING 98
SWIDTH 571 0
DWIDTH 8 0
BBX 7 7 0 0
BITMAP
C0
C0
FC
C6
C6
C6
7C
ENDCHAR
STARTCHAR U+0063
ENCODING 99
SWIDTH 571 0
DWIDTH 8 0
BBX 7 5 0 0
BITMAP
7E
C0
C0
C0
7E
ENDCHAR
STARTCHAR U+0064
ENCODING 100
SWIDTH 571 0
DWIDTH 8 0
BBX 7 7 0 0
BITMAP
06
06
7E
C6
C6
C6
7E
ENDCHAR
STARTCHAR U+0065
ENCODING 101
SWIDTH 571 0
DWIDTH 8 0
BBX 7 5 0 0
BITMAP
7C
C6
FE
C0
7C
ENDCHAR
STARTCHAR U+0066
ENCODING 102
SWIDTH 571 0
DWIDTH 8 0
BBX 6 7 1 0
BITMAP
1C
30
FC
30
30
30
30
ENDCHAR
STARTCHAR U+0067
ENCODING 103
SWIDTH 571 0
DWIDTH 8 0
BBX 7 6 0 -1
BITMAP
7E
C6
C6
7E
06
7C
ENDCHAR
STARTCHAR U+0068
ENCODING 104
SWIDTH 571 0
DWIDTH 8 0
BBX 7 7 0 0
BITMAP
C0
C0
FC
C6
C6
C6
C6
ENDCHAR
STARTCHAR U+0069
ENCODING 105
SWIDTH 571 0
DWIDTH 8 0
BBX 6 7 1 0
BITMAP
30
00
70
30
30
30
FC
ENDCHAR
STARTCHAR U+006A
ENCODING 106
SWIDTH 571 0
DWIDTH 8 0
BBX 5 8 1 -1
BITMAP
18
00
38
18
18
18
18
F0
ENDCHAR
STARTCHAR U+006B
ENCODING 107
SWIDTH 571 0
DWIDTH 8 0
BBX 7 7 0 0
BITMAP
C0
C0
C6
CC
F8
CC
C6
ENDCHAR
STARTCHAR U+006C
ENCODING 108
SWIDTH 571 0
DWIDTH 8 0
BBX 6 7 1 0
BITMAP
70
30
30
30
30
30
FC
ENDCHAR
STARTCHAR U+006D
ENCODING 109
SWIDTH 571 0
DWIDTH 8 0
BBX 7 5 0 0
BITMAP
FC
D6
D6
D6
D6
ENDCHAR
STARTCHAR U+006E
ENCODING 110
SWIDTH 571 0
DWIDTH 8 0
BBX 7 5 0 0
BITMAP
FC
C6
C6
C6
C6
ENDCHAR
STARTCHAR U+006F
ENCODING 111
SWIDTH 571 0
DWIDTH 8 0
BBX 7 5 0 0
BITMAP
7C
C6
C6
C6
7C
ENDCHAR
STARTCHAR U+0070
ENCODING 112
SWIDTH 571 0
DWIDTH 8 0
BBX 7 6 0 -1
BITMAP
FC
C6
C6
FC
C0
C0
ENDCHAR
STARTCHAR U+0071
ENCODING 113
SWIDTH 571 0
DWIDTH 8 0
BBX 7 6 0 -1
BITMAP
7E
C6
C6
7E
06
06
ENDCHAR
STARTCHAR U+0072
ENCODING 114
SWIDTH 571 0
DWIDTH 8 0
BBX 6 5 1 0
BITMAP
DC
E0
C0
C0
C0
ENDCHAR
STARTCHAR U+0073
ENCODING 115
SWIDTH 571 0
DWIDTH 8 0
BBX 7 5 0 0
BITMAP
7C
C0
7C
06
FC
ENDCHAR
STARTCHAR U+0074
ENCODING 116
SWIDTH 571 0
DWIDTH 8 0
BBX 6 7 1 0
BITMAP
30
30
FC
30
30
30
30
ENDCHAR
STARTCHAR U+0075
ENCODING 117
SWIDTH 571 0
DWIDTH 8 0
BBX 7 5 0 0
BITMAP
C6
C6
C6
C6
7E
ENDCHAR
STARTCHAR U+0076
ENCODING 118
SWIDTH 571 0
DWIDTH 8 0
BBX 6 5 1 0
BITMAP
CC
CC
CC
78
30
ENDCHAR
STARTCHAR U+0077
ENCODING 119
SWIDTH 571 0
DWIDTH 8 0
BBX 7 5 0 0
BITMAP
D6
D6
D6
D6
6C
ENDCHAR
STARTCHAR U+0078
ENCODING 120
SWIDTH 571 0
DWIDTH 8 0
BBX 7 5 0 0
BITMAP
C6
6C
38
6C
C6
ENDCHAR
STARTCHAR U+0079
ENCODING 121
SWIDTH 571 0
DWIDTH 8 0
BBX 7 6 0 -1
BITMAP
C6
C6
C6
7E
06
7C
ENDCHAR
STARTCHAR U+007A
ENCODING 122
SWIDTH 571 0
DWIDTH 8 0
BBX 7 5 0 0
BITMAP
FE
1C
38
70
FE
ENDCHAR
STARTCHAR U+007B
ENCODING 123
SWIDTH 571 0
DWIDTH 8 0
BBX 4 7 2 0
BITMAP
30
60
60
C0
60
60
30
ENDCHAR
STARTCHAR U+007C
ENCODING 124
SWIDTH 571 0
DWIDTH 8 0
BBX 2 7 3 0
BITMAP
C0
C0
C0
C0
C0
C0
C0
ENDCHAR
STARTCHAR U+007D
ENCODING 125
SWIDTH 571 0
DWIDTH 8 0
BBX 4 7 1 0
BITMAP
C0
60
60
30
60
60
C0
ENDCHAR
STARTCHAR U+007E
ENCODING 126
SWIDTH 571 0
DWIDTH 8 0
BBX 7 3 0 2
BITMAP
70
BA
1C
ENDCHAR
STARTCHAR U+007F
ENCODING 127
SWIDTH 571 0
DWIDTH 8 0
BBX 5 2 1 0
BITMAP
D8
D8
ENDCHAR
STARTCHAR U+00A0
ENCODING 160
SWIDTH 571 0
DWIDTH 8 0
BBX 0 0 0 0
BITMAP
ENDCHAR
STARTCHAR U+00A1
ENCODING 161
SWIDTH 571 0
DWIDTH 8 0
BBX 3 7 2 0
BITMAP
60
00
60
60
E0
E0
E0
ENDCHAR
STARTCHAR U+00A2
ENCODING 162
SWIDTH 571 0
DWIDTH 8 0
BBX 7 7 0 0
BITMAP
10
7C
D6
D0
D6
7C
10
ENDCHAR
STARTCHAR U+00A3
ENCODING 163
SWIDTH 571 0
DWIDTH 8 0
BBX 7 7 0 0
BITMAP
3C
66
60
FC
60
60
FE
ENDCHAR
STARTCHAR U+00A4
ENCODING 164
SWIDTH 571 0
DWIDTH 8 0
BBX 6 5 1 1
BITMAP
B4
48
48
48
B4
ENDCHAR
STARTCHAR U+00A5
ENCODING 165
SWIDTH 571 0
DWIDTH 8 0
BBX 6 7 1 0
BITMAP
CC
CC
78
FC
30
FC
30
ENDCHAR
STARTCHAR U+00A6
ENCODING 166
SWIDTH 571 0
DWIDTH 8 0
BBX 2 7 3 0
BITMAP
C0
C0
C0
00
C0
C0
C0
ENDCHAR
STARTCHAR U+00A7
ENCODING 167
SWIDTH 571 0
DWIDTH 8 0
BBX 6 7 1 0
BITMAP
78
CC
F0
48
3C
CC
78
ENDCHAR
STARTCHAR U+00A8
ENCODING 168
SWIDTH 571 0
DWIDTH 8 0
BBX 5 1 1 6
BITMAP
D8
ENDCHAR
STARTCHAR U+00A9
ENCODING 169
SWIDTH 571 0
DWIDTH 8 0
BBX 8 8 0 -1
BITMAP
3C
42
99
A1
A1
99
42
3C
ENDCHAR
STARTCHAR U+00AA
ENCODING 170
SWIDTH 571 0
DWIDTH 8 0
BBX 5 4 1 3
BITMAP
F0
78
D8
78
ENDCHAR
STARTCHAR U+00AB
ENCODING 171
SWIDTH 571 0
DWIDTH 8 0
BBX 7 5 0 1
BITMAP
36
6C
D8
6C
36
ENDCHAR
STARTCHAR U+00AC
ENCODING 172
SWIDTH 571 0
DWIDTH 8 0
BBX 6 3 1 2
BITMAP
FC
0C
0C
ENDCHAR
STARTCHAR U+00AD
ENCODING 173
SWIDTH 571 0
DWIDTH 8 0
BBX 6 1 1 3
BITMAP
FC
ENDCHAR
STARTCHAR U+00AE
ENCODING 174
SWIDTH 571 0
DWIDTH 8 0
BBX 8 8 0 -1
BITMAP
3C
42
B9
A5
B9
A5
42
3C
ENDCHAR
STARTCHAR U+00AF
ENCODING 175
SWIDTH 571 0
DWIDTH 8 0
BBX 5 1 1 6
BITMAP
F8
ENDCHAR
STARTCHAR U+00B0
ENCODING 176
SWIDTH 571 0
DWIDTH 8 0
BBX 3 3 2 4
BITMAP
40
A0
40
ENDCHAR
STARTCHAR U+00B1
ENCODING 177
SWIDTH 571 0
DWIDTH 8 0
BBX 6 7 1 0
BITMAP
30
30
FC
30
30
00
FC
ENDCHAR
STARTCHAR U+00B2
ENCODING 178
SWIDTH 571 0
DWIDTH 8 0
BBX 4 4 2 3
BITMAP
E0
30
60
F0
ENDCHAR
STARTCHAR U+00B3
ENCODING 179
SWIDTH 571 0
DWIDTH 8 0
BBX 4 4 2 3
BITMAP
F0
60
30
E0
ENDCHAR
STARTCHAR U+00B4
ENCODING 180
SWIDTH 571 0
DWIDTH 8 0
BBX 2 2 3 5
BITMAP
40
80
ENDCHAR
STARTCHAR U+00B5
ENCODING 181
SWIDTH 571 0
DWIDTH 8 0
BBX 7 6 0 -1
BITMAP
CC
CC
CC
CC
F6
C0
ENDCHAR
STARTCHAR U+00B6
ENCODING 182
SWIDTH 571 0
DWIDTH 8 0
BBX 6 7 1 0
BITMAP
7C
D4
94
D4
7C
14
14
ENDCHAR
STARTCHAR U+00B7
ENCODING 183
SWIDTH 571 0
DWIDTH 8 0
BBX 2 2 2 2
BITMAP
C0
C0
ENDCHAR
STARTCHAR U+00B8
ENCODING 184
SWIDTH 571 0
DWIDTH 8 0
BBX 3 2 2 -1
BITMAP
20
C0
ENDCHAR
STARTCHAR U+00B9
ENCODING 185
SWIDTH 571 0
DWIDTH 8 0
BBX 4 4 2 3
BITMAP
60
E0
60
F0
ENDCHAR
STARTCHAR U+00BA
ENCODING 186
SWIDTH 571 0
DWIDTH 8 0
BBX 5 4 1 3
BITMAP
70
D8
D8
70
ENDCHAR
STARTCHAR U+00BB
ENCODING 187
SWIDTH 571 0
DWIDTH 8 0
BBX 7 5 0 1
BITMAP
D8
6C
36
6C
D8
ENDCHAR
STARTCHAR U+00BC
ENCODING 188
SWIDTH 571 0
DWIDTH 8 0
BBX 7 7 0 0
BITMAP
42
C4
48
52
26
4E
82
ENDCHAR
STARTCHAR U+00BD
ENCODING 189
SWIDTH 571 0
DWIDTH 8 0
BBX 7 7 0 0
BITMAP
42
C4
48
56
22
44
8E
ENDCHAR
STARTCHAR U+00BE
ENCODING 190
SWIDTH 571 0
DWIDTH 8 0
BBX 7 7 0 0
BITMAP
E2
44
28
D2
26
4E
82
ENDCHAR
STARTCHAR U+00BF
ENCODING 191
SWIDTH 571 0
DWIDTH 8 0
BBX 7 7 0 0
BITMAP
38
00
38
60
C6
FE
7C
ENDCHAR
STARTCHAR U+00C0
ENCODING 192
SWIDTH 571 0
DWIDTH 8 0
BBX 7 7 0 0
BITMAP
20
10
38
6C
C6
FE
C6
ENDCHAR
STARTCHAR U+00C1
ENCODING 193
SWIDTH 571 0
DWIDTH 8 0
BBX 7 7 0 0
BITMAP
08
10
38
6C
C6
FE
C6
ENDCHAR
STARTCHAR U+00C2
ENCODING 194
SWIDTH 571 0
DWIDTH 8 0
BBX 7 7 0 0
BITMAP
38
6C
38
6C
C6
FE
C6
ENDCHAR
STARTCHAR U+00C3
ENCODING 195
SWIDTH 571 0
DWIDTH 8 0
BBX 7 7 0 0
BITMAP
34
58
38
6C
C6
FE
C6
ENDCHAR
STARTCHAR U+00C4
ENCODING 196
SWIDTH 571 0
DWIDTH 8 0
BBX 7 7 0 0
BITMAP
6C
00
38
6C
C6
FE
C6
ENDCHAR
STARTCHAR U+00C5
ENCODING 197
SWIDTH 571 0
DWIDTH 8 0
BBX 7 7 0 0
BITMAP
10
28
38
6C
C6
FE
C6
ENDCHAR
STARTCHAR U+00C6
ENCODING 198
SWIDTH 571 0
DWIDTH 8 0
BBX 7 7 0 0
BITMAP
3E
78
D8
DE
F8
D8
DE
ENDCHAR
STARTCHAR U+00C7
ENCODING 199
SWIDTH 571 0
DWIDTH 8 0
BBX 7 8 0 -1
BITMAP
3C
66
C0
C0
66
3C
08
30
ENDCHAR
STARTCHAR U+00C8
ENCODING 200
SWIDTH 571 0
DWIDTH 8 0
BBX 7 7 0 0
BITMAP
20
10
FE
C0
FC
C0
FE
ENDCHAR
STARTCHAR U+00C9
ENCODING 201
SWIDTH 571 0
DWIDTH 8 0
BBX 7 7 0 0
BITMAP
08
10
FE
C0
FC
C0
FE
ENDCHAR
STARTCHAR U+00CA
ENCODING 202
SWIDTH 571 0
DWIDTH 8 0
BBX 7 7 0 0
BITMAP
38
6C
FE
C0
FC
C0
FE
ENDCHAR
STARTCHAR U+00CB
ENCODING 203
SWIDTH 571 0
DWIDTH 8 0
BBX 7 7 0 0
BITMAP
6C
00
FE
C0
FC
C0
FE
ENDCHAR
STARTCHAR U+00CC
ENCODING 204
SWIDTH 571 0
DWIDTH 8 0
BBX 6 7 1 0
BITMAP
20
10
FC
30
30
30
FC
ENDCHAR
STARTCHAR U+00CD
ENCODING 205
SWIDTH 571 0
DWIDTH 8 0
BBX 6 7 1 0
BITMAP
10
20
FC
30
30
30
FC
ENDCHAR
STARTCHAR U+00CE
ENCODING 206
SWIDTH 571 0
DWIDTH 8 0
BBX 6 7 1 0
BITMAP
30
78
FC
30
30
30
FC
ENDCHAR
STARTCHAR U+00CF
ENCODING 207
SWIDTH 571 0
DWIDTH 8 0
BBX 6 7 1 0
BITMAP
CC
00
FC
30
30
30
FC
ENDCHAR
STARTCHAR U+00D0
ENCODING 208
SWIDTH 571 0
DWIDTH 8 0
BBX 7 7 0 0
BITMAP
78
6C
66
F6
66
6C
78
ENDCHAR
STARTCHAR U+00D1
ENCODING 209
SWIDTH 571 0
DWIDTH 8 0
BBX 7 7 0 0
BITMAP
34
58
E6
F6
FE
DE
CE
ENDCHAR
STARTCHAR U+00D2
ENCODING 210
SWIDTH 571 0
DWIDTH 8 0
BBX 7 7 0 0
BITMAP
20
10
7C
C6
C6
C6
7C
ENDCHAR
STARTCHAR U+00D3
ENCODING 211
SWIDTH 571 0
DWIDTH 8 0
BBX 7 7 0 0
BITMAP
08
10
7C
C6
C6
C6
7C
ENDCHAR
STARTCHAR U+00D4
ENCODING 212
SWIDTH 571 0
DWIDTH 8 0
BBX 7 7 0 0
BITMAP
38
6C
7C
C6
C6
C6
7C
ENDCHAR
STARTCHAR U+00D5
ENCODING 213
SWIDTH 571 0
DWIDTH 8 0
BBX 7 7 0 0
BITMAP
34
58
7C
C6
C6
C6
7C
ENDCHAR
STARTCHAR U+00D6
ENCODING 214
SWIDTH 571 0
DWIDTH 8 0
BBX 7 7 0 0
BITMAP
6C
00
7C
C6
C6
C6
7C
ENDCHAR
STARTCHAR U+00D7
ENCODING 215
SWIDTH 571 0
DWIDTH 8 0
BBX 5 5 1 1
BITMAP
88
50
20
50
88
ENDCHAR
STARTCHAR U+00D8
ENCODING 216
SWIDTH 571 0
DWIDTH 8 0
BBX 7 7 0 0
BITMAP
7C
C6
CE
D6
E6
C6
7C
ENDCHAR
STARTCHAR U+00D9
ENCODING 217
SWIDTH 571 0
DWIDTH 8 0
BBX 7 7 0 0
BITMAP
20
10
C6
C6
C6
C6
7C
ENDCHAR
STARTCHAR U+00DA
ENCODING 218
SWIDTH 571 0
DWIDTH 8 0
BBX 7 7 0 0
BITMAP
08
10
C6
C6
C6
C6
7C
ENDCHAR
STARTCHAR U+00DB
ENCODING 219
SWIDTH 571 0
DWIDTH 8 0
BBX 7 7 0 0
BITMAP
38
6C
00
C6
C6
C6
7C
ENDCHAR
STARTCHAR U+00DC
ENCODING 220
SWIDTH 571 0
DWIDTH 8 0
BBX 7 7 0 0
BITMAP
6C
00
C6
C6
C6
C6
7C
ENDCHAR
STARTCHAR U+00DD
ENCODING 221
SWIDTH 571 0
DWIDTH 8 0
BBX 6 7 1 0
BITMAP
10
20
CC
CC
78
30
30
ENDCHAR
STARTCHAR U+00DE
ENCODING 222
SWIDTH 571 0
DWIDTH 8 0
BBX 7 7 0 0
BITMAP
C0
FC
C6
C6
C6
FC
C0
ENDCHAR
STARTCHAR U+00DF
ENCODING 223
SWIDTH 571 0
DWIDTH 8 0
BBX 6 7 1 0
BITMAP
78
CC
CC
D8
CC
EC
D8
ENDCHAR
STARTCHAR U+00E0
ENCODING 224
SWIDTH 571 0
DWIDTH 8 0
BBX 7 7 0 0
BITMAP
20
10
7C
06
7E
C6
7E
ENDCHAR
STARTCHAR U+00E1
ENCODING 225
SWIDTH 571 0
DWIDTH 8 0
BBX 7 7 0 0
BITMAP
08
10
7C
06
7E
C6
7E
ENDCHAR
STARTCHAR U+00E2
ENCODING 226
SWIDTH 571 0
DWIDTH 8 0
BBX 7 7 0 0
BITMAP
38
6C
7C
06
7E
C6
7E
ENDCHAR
STARTCHAR U+00E3
ENCODING 227
SWIDTH 571 0
DWIDTH 8 0
BBX 7 7 0 0
BITMAP
34
58
7C
06
7E
C6
7E
ENDCHAR
STARTCHAR U+00E4
ENCODING 228
SWIDTH 571 0
DWIDTH 8 0
BBX 7 7 0 0
BITMAP
6C
00
7C
06
7E
C6
7E
ENDCHAR
STARTCHAR U+00E5
ENCODING 229
SWIDTH 571 0
DWIDTH 8 0
BBX 7 7 0 0
BITMAP
10
28
7C
06
7E
C6
7E
ENDCHAR
STARTCHAR U+00E6
ENCODING 230
SWIDTH 571 0
DWIDTH 8 0
BBX 7 5 0 0
BITMAP
7C
16
7E
D0
7C
ENDCHAR
STARTCHAR U+00E7
ENCODING 231
SWIDTH 571 0
DWIDTH 8 0
BBX 7 6 0 -1
BITMAP
7E
C0
C0
7E
08
30
ENDCHAR
STARTCHAR U+00E8
ENCODING 232
SWIDTH 571 0
DWIDTH 8 0
BBX 7 7 0 0
BITMAP
20
10
7C
C6
FE
C0
7C
ENDCHAR
STARTCHAR U+00E9
ENCODING 233
SWIDTH 571 0
DWIDTH 8 0
BBX 7 7 0 0
BITMAP
08
10
7C
C6
FE
C0
7C
ENDCHAR
STARTCHAR U+00EA
ENCODING 234
SWIDTH 571 0
DWIDTH 8 0
BBX 7 7 0 0
BITMAP
38
6C
7C
C6
FE
C0
7C
ENDCHAR
STARTCHAR U+00EB
ENCODING 235
SWIDTH 571 0
DWIDTH 8 0
BBX 7 7 0 0
BITMAP
6C
00
7C
C6
FE
C0
7C
ENDCHAR
STARTCHAR U+00EC
ENCODING 236
SWIDTH 571 0
DWIDTH 8 0
BBX 6 7 1 0
BITMAP
40
20
00
70
30
30
FC
ENDCHAR
STARTCHAR U+00ED
ENCODING 237
SWIDTH 571 0
DWIDTH 8 0
BBX 6 7 1 0
BITMAP
10
20
00
70
30
30
FC
ENDCHAR
STARTCHAR U+00EE
ENCODING 238
SWIDTH 571 0
DWIDTH 8 0
BBX 6 7 1 0
BITMAP
70
D8
00
70
30
30
FC
ENDCHAR
STARTCHAR U+00EF
ENCODING 239
SWIDTH 571 0
DWIDTH 8 0
BBX 6 7 1 0
BITMAP
D8
00
70
30
30
30
FC
ENDCHAR
STARTCHAR U+00F0
ENCODING 240
SWIDTH 571 0
DWIDTH 8 0
BBX 7 7 0 0
BITMAP
64
78
98
7C
C6
C6
7C
ENDCHAR
STARTCHAR U+00F1
ENCODING 241
SWIDTH 571 0
DWIDTH 8 0
BBX 7 7 0 0
BITMAP
34
58
FC
C6
C6
C6
C6
ENDCHAR
STARTCHAR U+00F2
ENCODING 242
SWIDTH 571 0
DWIDTH 8 0
BBX 7 7 0 0
BITMAP
20
10
7C
C6
C6
C6
7C
ENDCHAR
STARTCHAR U+00F3
ENCODING 243
SWIDTH 571 0
DWIDTH 8 0
BBX 7 7 0 0
BITMAP
08
10
7C
C6
C6
C6
7C
ENDCHAR
STARTCHAR U+00F4
ENCODING 244
SWIDTH 571 0
DWIDTH 8 0
BBX 7 7 0 0
BITMAP
38
6C
7C
C6
C6
C6
7C
ENDCHAR
STARTCHAR U+00F5
ENCODING 245
SWIDTH 571 0
DWIDTH 8 0
BBX 7 7 0 0
BITMAP
34
58
7C
C6
C6
C6
7C
ENDCHAR
STARTCHAR U+00F6
ENCODING 246
SWIDTH 571 0
DWIDTH 8 0
BBX 7 7 0 0
BITMAP
6C
00
7C
C6
C6
C6
7C
ENDCHAR
STARTCHAR U+00F7
ENCODING 247
SWIDTH 571 0
DWIDTH 8 0
BBX 6 5 1 1
BITMAP
30
00
FC
00
30
ENDCHAR
STARTCHAR U+00F8
ENCODING 248
SWIDTH 571 0
DWIDTH 8 0
BBX 7 5 0 0
BITMAP
7C
CE
D6
E6
7C
ENDCHAR
STARTCHAR U+00F9
ENCODING 249
SWIDTH 571 0
DWIDTH 8 0
BBX 7 7 0 0
BITMAP
20
10
C6
C6
C6
C6
7E
ENDCHAR
STARTCHAR U+00FA
ENCODING 250
SWIDTH 571 0
DWIDTH 8 0
BBX 7 7 0 0
BITMAP
08
10
C6
C6
C6
C6
7E
ENDCHAR
STARTCHAR U+00FB
ENCODING 251
SWIDTH 571 0
DWIDTH 8 0
BBX 7 7 0 0
BITMAP
38
6C
00
C6
C6
C6
7E
ENDCHAR
STARTCHAR U+00FC
ENCODING 252
SWIDTH 571 0
DWIDTH 8 0
BBX 7 7 0 0
BITMAP
6C
00
C6
C6
C6
C6
7E
ENDCHAR
STARTCHAR U+00FD
ENCODING 253
SWIDTH 571 0
DWIDTH 8 0
BBX 7 8 0 -1
BITMAP
08
10
C6
C6
C6
7E
06
7C
ENDCHAR
STARTCHAR U+00FE
ENCODING 254
SWIDTH 571 0
DWIDTH 8 0
BBX 7 8 0 -1
BITMAP
C0
C0
FC
C6
C6
FC
C0
C0
ENDCHAR
STARTCHAR U+00FF
ENCODING 255
SWIDTH 571 0
DWIDTH 8 0
BBX 7 8 0 -1
BITMAP
6C
00
C6
C6
C6
7E
06
7C
ENDCHAR
STARTCHAR U+0100
ENCODING 256
SWIDTH 571 0
DWIDTH 8 0
BBX 7 7 0 0
BITMAP
7C
00
38
6C
C6
FE
C6
ENDCHAR
STARTCHAR U+0101
ENCODING 257
SWIDTH 571 0
DWIDTH 8 0
BBX 7 7 0 0
BITMAP
7C
00
7C
06
7E
C6
7E
ENDCHAR
STARTCHAR U+0102
ENCODING 258
SWIDTH 571 0
DWIDTH 8 0
BBX 7 7 0 0
BITMAP
44
38
38
6C
C6
FE
C6
ENDCHAR
STARTCHAR U+0103
ENCODING 259
SWIDTH 571 0
DWIDTH 8 0
BBX 7 7 0 0
BITMAP
44
38
7C
06
7E
C6
7E
ENDCHAR
STARTCHAR U+0104
ENCODING 260
SWIDTH 571 0
DWIDTH 8 0
BBX 7 8 0 -1
BITMAP
38
6C
C6
FE
C6
04
08
06
ENDCHAR
STARTCHAR U+0105
ENCODING 261
SWIDTH 571 0
DWIDTH 8 0
BBX 7 8 0 -1
BITMAP
7C
06
7E
C6
7E
10
20
18
ENDCHAR
STARTCHAR U+0106
ENCODING 262
SWIDTH 571 0
DWIDTH 8 0
BBX 7 7 0 0
BITMAP
08
10
3C
66
C0
66
3C
ENDCHAR
STARTCHAR U+0107
ENCODING 263
SWIDTH 571 0
DWIDTH 8 0
BBX 7 7 0 0
BITMAP
08
10
7E
C0
C0
C0
7E
ENDCHAR
STARTCHAR U+0108
ENCODING 264
SWIDTH 571 0
DWIDTH 8 0
BBX 7 7 0 0
BITMAP
38
6C
3C
66
C0
66
3C
ENDCHAR
STARTCHAR U+0109
ENCODING 265
SWIDTH 571 0
DWIDTH 8 0
BBX 7 7 0 0
BITMAP
38
6C
7E
C0
C0
C0
7E
ENDCHAR
STARTCHAR U+010A
ENCODING 266
SWIDTH 571 0
DWIDTH 8 0
BBX 7 7 0 0
BITMAP
18
00
3C
66
C0
66
3C
ENDCHAR
STARTCHAR U+010B
ENCODING 267
SWIDTH 571 0
DWIDTH 8 0
BBX 7 7 0 0
BITMAP
18
00
7E
C0
C0
C0
7E
ENDCHAR
STARTCHAR U+010C
ENCODING 268
SWIDTH 571 0
DWIDTH 8 0
BBX 7 7 0 0
BITMAP
66
3C
3C
66
C0
66
3C
ENDCHAR
STARTCHAR U+010D
ENCODING 269
SWIDTH 571 0
DWIDTH 8 0
BBX 7 7 0 0
BITMAP
6C
38
7E
C0
C0
C0
7E
ENDCHAR
STARTCHAR U+010E
ENCODING 270
SWIDTH 571 0
DWIDTH 8 0
BBX 7 7 0 0
BITMAP
6C
38
F8
CC
C6
CC
F8
ENDCHAR
STARTCHAR U+010F
ENCODING 271
SWIDTH 571 0
DWIDTH 8 0
BBX 8 7 0 0
BITMAP
1B
1B
7A
D8
D8
D8
78
ENDCHAR
STARTCHAR U+0110
ENCODING 272
SWIDTH 571 0
DWIDTH 8 0
BBX 7 7 0 0
BITMAP
78
6C
66
F6
66
6C
78
ENDCHAR
STARTCHAR U+0111
ENCODING 273
SWIDTH 571 0
DWIDTH 8 0
BBX 7 7 0 0
BITMAP
0C
1E
7C
CC
CC
CC
7C
ENDCHAR
STARTCHAR U+0112
ENCODING 274
SWIDTH 571 0
DWIDTH 8 0
BBX 7 7 0 0
BITMAP
7C
00
FE
C0
FC
C0
FE
ENDCHAR
STARTCHAR U+0113
ENCODING 275
SWIDTH 571 0
DWIDTH 8 0
BBX 7 7 0 0
BITMAP
7C
00
7C
C6
FE
C0
7C
ENDCHAR
STARTCHAR U+0114
ENCODING 276
SWIDTH 571 0
DWIDTH 8 0
BBX 7 7 0 0
BITMAP
44
38
FE
C0
FC
C0
FE
ENDCHAR
STARTCHAR U+0115
ENCODING 277
SWIDTH 571 0
DWIDTH 8 0
BBX 7 7 0 0
BITMAP
44
38
7C
C6
FE
C0
7C
ENDCHAR
STARTCHAR U+0116
ENCODING 278
SWIDTH 571 0
DWIDTH 8 0
BBX 7 7 0 0
BITMAP
18
00
FE
C0
FC
C0
FE
ENDCHAR
STARTCHAR U+0117
ENCODING 279
SWIDTH 571 0
DWIDTH 8 0
BBX 7 7 0 0
BITMAP
18
00
7C
C6
FE
C0
7C
ENDCHAR
STARTCHAR U+0118
ENCODING 280
SWIDTH 571 0
DWIDTH 8 0
BBX 7 8 0 -1
BITMAP
FE
C0
FC
C0
FE
10
20
18
ENDCHAR
STARTCHAR U+0119
ENCODING 281
SWIDTH 571 0
DWIDTH 8 0
BBX 7 8 0 -1
BITMAP
7C
C6
FE
C0
7C
10
20
18
ENDCHAR
STARTCHAR U+011A
ENCODING 282
SWIDTH 571 0
DWIDTH 8 0
BBX 7 7 0 0
BITMAP
6C
38
FE
C0
FC
C0
FE
ENDCHAR
STARTCHAR U+011B
ENCODING 283
SWIDTH 571 0
DWIDTH 8 0
BBX 7 7 0 0
BITMAP
6C
38
7C
C6
FE
C0
7C
ENDCHAR
STARTCHAR U+011C
ENCODING 284
SWIDTH 571 0
DWIDTH 8 0
BBX 7 7 0 0
BITMAP
38
6C
7E
C0
CE
C6
7E
ENDCHAR
STARTCHAR U+011D
ENCODING 285
SWIDTH 571 0
DWIDTH 8 0
BBX 7 8 0 -1
BITMAP
38
6C
7E
C6
C6
7E
06
7C
ENDCHAR
STARTCHAR U+011E
ENCODING 286
SWIDTH 571 0
DWIDTH 8 0
BBX 7 7 0 0
BITMAP
44
38
7E
C0
CE
C6
7E
ENDCHAR
STARTCHAR U+011F
ENCODING 287
SWIDTH 571 0
DWIDTH 8 0
BBX 7 8 0 -1
BITMAP
44
38
7E
C6
C6
7E
06
7C
ENDCHAR
STARTCHAR U+0120
ENCODING 288
SWIDTH 571 0
DWIDTH 8 0
BBX 7 7 0 0
BITMAP
18
00
7E
C0
CE
C6
7E
ENDCHAR
STARTCHAR U+0121
ENCODING 289
SWIDTH 571 0
DWIDTH 8 0
BBX 7 8 0 -1
BITMAP
18
00
7E
C6
C6
7E
06
7C
ENDCHAR
STARTCHAR U+0122
ENCODING 290
SWIDTH 571 0
DWIDTH 8 0
BBX 7 8 0 -1
BITMAP
3E
60
C0
CE
66
3E
18
30
ENDCHAR
STARTCHAR U+0123
ENCODING 291
SWIDTH 571 0
DWIDTH 8 0
BBX 7 8 0 -1
BITMAP
18
30
7E
C6
C6
7E
06
7C
ENDCHAR
STARTCHAR U+0124
ENCODING 292
SWIDTH 571 0
DWIDTH 8 0
BBX 7 7 0 0
BITMAP
38
EE
C6
C6
FE
C6
C6
ENDCHAR
STARTCHAR U+0125
ENCODING 293
SWIDTH 571 0
DWIDTH 8 0
BBX 7 7 0 0
BITMAP
38
EC
C0
FC
C6
C6
C6
ENDCHAR
STARTCHAR U+0126
ENCODING 294
SWIDTH 571 0
DWIDTH 8 0
BBX 7 7 0 0
BITMAP
C6
FE
C6
FE
C6
C6
C6
ENDCHAR
STARTCHAR U+0127
ENCODING 295
SWIDTH 571 0
DWIDTH 8 0
BBX 7 7 0 0
BITMAP
60
F8
60
7C
66
66
66
ENDCHAR
STARTCHAR U+0128
ENCODING 296
SWIDTH 571 0
DWIDTH 8 0
BBX 6 7 1 0
BITMAP
64
98
FC
30
30
30
FC
ENDCHAR
STARTCHAR U+0129
ENCODING 297
SWIDTH 571 0
DWIDTH 8 0
BBX 6 7 1 0
BITMAP
64
98
00
70
30
30
FC
ENDCHAR
STARTCHAR U+012A
ENCODING 298
SWIDTH 571 0
DWIDTH 8 0
BBX 6 7 1 0
BITMAP
FC
00
FC
30
30
30
FC
ENDCHAR
STARTCHAR U+012B
ENCODING 299
SWIDTH 571 0
DWIDTH 8 0
BBX 6 7 1 0
BITMAP
F8
00
70
30
30
30
FC
ENDCHAR
STARTCHAR U+012C
ENCODING 300
SWIDTH 571 0
DWIDTH 8 0
BBX 6 7 1 0
BITMAP
48
30
FC
30
30
30
FC
ENDCHAR
STARTCHAR U+012D
ENCODING 301
SWIDTH 571 0
DWIDTH 8 0
BBX 6 7 1 0
BITMAP
88
70
00
70
30
30
FC
ENDCHAR
STARTCHAR U+012E
ENCODING 302
SWIDTH 571 0
DWIDTH 8 0
BBX 6 8 1 -1
BITMAP
FC
30
30
30
FC
20
40
30
ENDCHAR
STARTCHAR U+012F
ENCODING 303
SWIDTH 571 0
DWIDTH 8 0
BBX 6 8 1 -1
BITMAP
30
00
70
30
FC
20
40
30
ENDCHAR
STARTCHAR U+0130
ENCODING 304
SWIDTH 571 0
DWIDTH 8 0
BBX 6 7 1 0
BITMAP
30
00
FC
30
30
30
FC
ENDCHAR
STARTCHAR U+0131
ENCODING 305
SWIDTH 571 0
DWIDTH 8 0
BBX 6 5 1 0
BITMAP
70
30
30
30
FC
ENDCHAR
STARTCHAR U+0132
ENCODING 306
SWIDTH 571 0
DWIDTH 8 0
BBX 7 7 0 0
BITMAP
F6
66
66
66
F6
06
7C
ENDCHAR
STARTCHAR U+0133
ENCODING 307
SWIDTH 571 0
DWIDTH 8 0
BBX 7 8 0 -1
BITMAP
66
00
EE
66
66
66
06
3C
ENDCHAR
STARTCHAR U+0134
ENCODING 308
SWIDTH 571 0
DWIDTH 8 0
BBX 7 7 0 0
BITMAP
1C
36
06
06
06
C6
7C
ENDCHAR
STARTCHAR U+0135
ENCODING 309
SWIDTH 571 0
DWIDTH 8 0
BBX 6 8 1 -1
BITMAP
38
6C
00
38
18
18
18
F0
ENDCHAR
STARTCHAR U+0136
ENCODING 310
SWIDTH 571 0
DWIDTH 8 0
BBX 7 8 0 -1
BITMAP
CC
D8
F0
F8
DC
CE
30
60
ENDCHAR
STARTCHAR U+0137
ENCODING 311
SWIDTH 571 0
DWIDTH 8 0
BBX 7 8 0 -1
BITMAP
C0
C6
CC
F8
CC
C6
30
60
ENDCHAR
STARTCHAR U+0138
ENCODING 312
SWIDTH 571 0
DWIDTH 8 0
BBX 7 5 0 0
BITMAP
C6
CC
F8
CC
C6
ENDCHAR
STARTCHAR U+0139
ENCODING 313
SWIDTH 571 0
DWIDTH 8 0
BBX 6 7 1 0
BITMAP
10
E0
C0
C0
C0
C0
FC
ENDCHAR
STARTCHAR U+013A
ENCODING 314
SWIDTH 571 0
DWIDTH 8 0
BBX 6 7 0 0
BITMAP
10
20
70
30
30
30
FC
ENDCHAR
STARTCHAR U+013B
ENCODING 315
SWIDTH 571 0
DWIDTH 8 0
BBX 6 8 1 -1
BITMAP
C0
C0
C0
C0
C0
FC
30
60
ENDCHAR
STARTCHAR U+013C
ENCODING 316
SWIDTH 571 0
DWIDTH 8 0
BBX 6 8 1 -1
BITMAP
70
30
30
30
30
FC
30
60
ENDCHAR
STARTCHAR U+013D
ENCODING 317
SWIDTH 571 0
DWIDTH 8 0
BBX 6 7 1 0
BITMAP
CC
CC
C8
C0
C0
C0
FC
ENDCHAR
STARTCHAR U+013E
ENCODING 318
SWIDTH 571 0
DWIDTH 8 0
BBX 7 7 0 0
BITMAP
76
36
34
30
30
30
FC
ENDCHAR
STARTCHAR U+013F
ENCODING 319
SWIDTH 571 0
DWIDTH 8 0
BBX 6 7 1 0
BITMAP
C0
C0
D8
D8
C0
C0
FC
ENDCHAR
STARTCHAR U+0140
ENCODING 320
SWIDTH 571 0
DWIDTH 8 0
BBX 7 7 0 0
BITMAP
70
30
36
36
30
30
FC
ENDCHAR
STARTCHAR U+0141
ENCODING 321
SWIDTH 571 0
DWIDTH 8 0
BBX 7 7 0 0
BITMAP
60
60
70
E0
60
60
7E
ENDCHAR
STARTCHAR U+0142
ENCODING 322
SWIDTH 571 0
DWIDTH 8 0
BBX 6 7 1 0
BITMAP
70
30
38
70
30
30
FC
ENDCHAR
STARTCHAR U+0143
ENCODING 323
SWIDTH 571 0
DWIDTH 8 0
BBX 7 7 0 0
BITMAP
08
10
E6
F6
FE
DE
CE
ENDCHAR
STARTCHAR U+0144
ENCODING 324
SWIDTH 571 0
DWIDTH 8 0
BBX 7 7 0 0
BITMAP
08
10
FC
C6
C6
C6
C6
ENDCHAR
STARTCHAR U+0145
ENCODING 325
SWIDTH 571 0
DWIDTH 8 0
BBX 7 8 0 -1
BITMAP
E6
F6
FE
DE
CE
C6
18
30
ENDCHAR
STARTCHAR U+0146
ENCODING 326
SWIDTH 571 0
DWIDTH 8 0
BBX 7 7 0 -1
BITMAP
FC
C6
C6
C6
C6
18
30
ENDCHAR
STARTCHAR U+0147
ENCODING 327
SWIDTH 571 0
DWIDTH 8 0
BBX 7 7 0 0
BITMAP
6C
38
E6
F6
FE
DE
CE
ENDCHAR
STARTCHAR U+0148
ENCODING 328
SWIDTH 571 0
DWIDTH 8 0
BBX 7 7 0 0
BITMAP
6C
38
FC
C6
C6
C6
C6
ENDCHAR
STARTCHAR U+014A
ENCODING 330
SWIDTH 571 0
DWIDTH 8 0
BBX 7 8 0 -1
BITMAP
E6
F6
FE
DE
CE
C6
06
3C
ENDCHAR
STARTCHAR U+014B
ENCODING 331
SWIDTH 571 0
DWIDTH 8 0
BBX 7 7 0 -1
BITMAP
FC
C6
C6
C6
C6
06
3C
ENDCHAR
STARTCHAR U+014C
ENCODING 332
SWIDTH 571 0
DWIDTH 8 0
BBX 7 7 0 0
BITMAP
7C
00
7C
C6
C6
C6
7C
ENDCHAR
STARTCHAR U+014D
ENCODING 333
SWIDTH 571 0
DWIDTH 8 0
BBX 7 7 0 0
BITMAP
7C
00
7C
C6
C6
C6
7C
ENDCHAR
STARTCHAR U+014E
ENCODING 334
SWIDTH 571 0
DWIDTH 8 0
BBX 7 7 0 0
BITMAP
44
38
7C
C6
C6
C6
7C
ENDCHAR
STARTCHAR U+014F
ENCODING 335
SWIDTH 571 0
DWIDTH 8 0
BBX 7 7 0 0
BITMAP
44
38
7C
C6
C6
C6
7C
ENDCHAR
STARTCHAR U+0150
ENCODING 336
SWIDTH 571 0
DWIDTH 8 0
BBX 7 7 0 0
BITMAP
24
48
7C
C6
C6
C6
7C
ENDCHAR
STARTCHAR U+0151
ENCODING 337
SWIDTH 571 0
DWIDTH 8 0
BBX 7 7 0 0
BITMAP
24
48
7C
C6
C6
C6
7C
ENDCHAR
STARTCHAR U+0152
ENCODING 338
SWIDTH 571 0
DWIDTH 8 0
BBX 7 7 0 0
BITMAP
7E
D8
D8
DE
D8
D8
7E
ENDCHAR
STARTCHAR U+0153
ENCODING 339
SWIDTH 571 0
DWIDTH 8 0
BBX 7 5 0 0
BITMAP
7C
D6
DE
D0
7C
ENDCHAR
STARTCHAR U+0154
ENCODING 340
SWIDTH 571 0
DWIDTH 8 0
BBX 7 7 0 0
BITMAP
08
10
FC
CE
F8
DC
CE
ENDCHAR
STARTCHAR U+0155
ENCODING 341
SWIDTH 571 0
DWIDTH 8 0
BBX 6 7 1 0
BITMAP
10
20
DC
E0
C0
C0
C0
ENDCHAR
STARTCHAR U+0156
ENCODING 342
SWIDTH 571 0
DWIDTH 8 0
BBX 7 8 0 -1
BITMAP
FC
C6
CE
F8
DC
CE
18
30
ENDCHAR
STARTCHAR U+0157
ENCODING 343
SWIDTH 571 0
DWIDTH 8 0
BBX 6 7 1 -1
BITMAP
DC
E0
C0
C0
C0
60
C0
ENDCHAR
STARTCHAR U+0158
ENCODING 344
SWIDTH 571 0
DWIDTH 8 0
BBX 7 7 0 0
BITMAP
28
10
FC
CE
F8
DC
CE
ENDCHAR
STARTCHAR U+0159
ENCODING 345
SWIDTH 571 0
DWIDTH 8 0
BBX 6 7 1 0
BITMAP
6C
38
DC
E0
C0
C0
C0
ENDCHAR
STARTCHAR U+015A
ENCODING 346
SWIDTH 571 0
DWIDTH 8 0
BBX 7 7 0 0
BITMAP
08
10
7C
C0
7C
06
FC
ENDCHAR
STARTCHAR U+015B
ENCODING 347
SWIDTH 571 0
DWIDTH 8 0
BBX 7 7 0 0
BITMAP
08
10
7C
C0
7C
06
FC
ENDCHAR
STARTCHAR U+015C
ENCODING 348
SWIDTH 571 0
DWIDTH 8 0
BBX 7 7 0 0
BITMAP
38
6C
7C
C0
7C
06
FC
ENDCHAR
STARTCHAR U+015D
ENCODING 349
SWIDTH 571 0
DWIDTH 8 0
BBX 7 7 0 0
BITMAP
38
6C
7C
C0
7C
06
FC
ENDCHAR
STARTCHAR U+015E
ENCODING 350
SWIDTH 571 0
DWIDTH 8 0
BBX 7 8 0 -1
BITMAP
7C
C0
7C
06
C6
7C
08
30
ENDCHAR
STARTCHAR U+015F
ENCODING 351
SWIDTH 571 0
DWIDTH 8 0
BBX 7 7 0 -1
BITMAP
7C
C0
7C
06
FC
08
30
ENDCHAR
STARTCHAR U+0160
ENCODING 352
SWIDTH 571 0
DWIDTH 8 0
BBX 7 7 0 0
BITMAP
6C
38
7C
C0
7C
06
FC
ENDCHAR
STARTCHAR U+0161
ENCODING 353
SWIDTH 571 0
DWIDTH 8 0
BBX 7 7 0 0
BITMAP
6C
38
7C
C0
7C
06
FC
ENDCHAR
STARTCHAR U+0164
ENCODING 356
SWIDTH 571 0
DWIDTH 8 0
BBX 6 7 1 0
BITMAP
48
30
FC
30
30
30
30
ENDCHAR
STARTCHAR U+0165
ENCODING 357
SWIDTH 571 0
DWIDTH 8 0
BBX 6 7 1 0
BITMAP
48
30
30
FC
30
30
30
ENDCHAR
STARTCHAR U+0166
ENCODING 358
SWIDTH 571 0
DWIDTH 8 0
BBX 6 7 1 0
BITMAP
FC
30
30
38
70
30
30
ENDCHAR
STARTCHAR U+0167
ENCODING 359
SWIDTH 571 0
DWIDTH 8 0
BBX 6 7 1 0
BITMAP
30
30
FC
30
38
70
30
ENDCHAR
STARTCHAR U+0168
ENCODING 360
SWIDTH 571 0
DWIDTH 8 0
BBX 7 7 0 0
BITMAP
34
58
C6
C6
C6
C6
7C
ENDCHAR
STARTCHAR U+0169
ENCODING 361
SWIDTH 571 0
DWIDTH 8 0
BBX 7 7 0 0
BITMAP
34
58
C6
C6
C6
C6
7E
ENDCHAR
STARTCHAR U+016A
ENCODING 362
SWIDTH 571 0
DWIDTH 8 0
BBX 7 7 0 0
BITMAP
7C
00
C6
C6
C6
C6
7C
ENDCHAR
STARTCHAR U+016B
ENCODING 363
SWIDTH 571 0
DWIDTH 8 0
BBX 7 7 0 0
BITMAP
7C
00
C6
C6
C6
C6
7E
ENDCHAR
STARTCHAR U+016C
ENCODING 364
SWIDTH 571 0
DWIDTH 8 0
BBX 7 7 0 0
BITMAP
44
38
C6
C6
C6
C6
7C
ENDCHAR
STARTCHAR U+016D
ENCODING 365
SWIDTH 571 0
DWIDTH 8 0
BBX 7 7 0 0
BITMAP
44
38
C6
C6
C6
C6
7E
ENDCHAR
STARTCHAR U+016E
ENCODING 366
SWIDTH 571 0
DWIDTH 8 0
BBX 7 7 0 0
BITMAP
38
6C
BA
C6
C6
C6
7C
ENDCHAR
STARTCHAR U+016F
ENCODING 367
SWIDTH 571 0
DWIDTH 8 0
BBX 7 7 0 0
BITMAP
38
6C
BA
C6
C6
C6
7E
ENDCHAR
STARTCHAR U+0170
ENCODING 368
SWIDTH 571 0
DWIDTH 8 0
BBX 7 7 0 0
BITMAP
24
48
C6
C6
C6
C6
7C
ENDCHAR
STARTCHAR U+0171
ENCODING 369
SWIDTH 571 0
DWIDTH 8 0
BBX 7 7 0 0
BITMAP
24
48
C6
C6
C6
C6
7E
ENDCHAR
STARTCHAR U+0172
ENCODING 370
SWIDTH 571 0
DWIDTH 8 0
BBX 7 8 0 -1
BITMAP
C6
C6
C6
C6
7C
10
20
18
ENDCHAR
STARTCHAR U+0173
ENCODING 371
SWIDTH 571 0
DWIDTH 8 0
BBX 7 8 0 -1
BITMAP
C6
C6
C6
C6
7E
10
20
18
ENDCHAR
STARTCHAR U+0174
ENCODING 372
SWIDTH 571 0
DWIDTH 8 0
BBX 7 7 0 0
BITMAP
38
6C
C6
D6
FE
FE
EE
ENDCHAR
STARTCHAR U+0175
ENCODING 373
SWIDTH 571 0
DWIDTH 8 0
BBX 7 7 0 0
BITMAP
38
6C
00
D6
D6
D6
6C
ENDCHAR
STARTCHAR U+0176
ENCODING 374
SWIDTH 571 0
DWIDTH 8 0
BBX 6 7 1 0
BITMAP
30
48
CC
CC
78
30
30
ENDCHAR
STARTCHAR U+0177
ENCODING 375
SWIDTH 571 0
DWIDTH 8 0
BBX 7 8 0 -1
BITMAP
38
6C
00
C6
C6
7E
06
7C
ENDCHAR
STARTCHAR U+0178
ENCODING 376
SWIDTH 571 0
DWIDTH 8 0
BBX 6 7 1 0
BITMAP
CC
00
CC
CC
78
30
30
ENDCHAR
STARTCHAR U+0179
ENCODING 377
SWIDTH 571 0
DWIDTH 8 0
BBX 7 7 0 0
BITMAP
08
10
FE
1C
38
70
FE
ENDCHAR
STARTCHAR U+017A
ENCODING 378
SWIDTH 571 0
DWIDTH 8 0
BBX 7 7 0 0
BITMAP
08
10
FE
1C
38
70
FE
ENDCHAR
STARTCHAR U+017B
ENCODING 379
SWIDTH 571 0
DWIDTH 8 0
BBX 7 7 0 0
BITMAP
18
00
FE
1C
38
70
FE
ENDCHAR
STARTCHAR U+017C
ENCODING 380
SWIDTH 571 0
DWIDTH 8 0
BBX 7 7 0 0
BITMAP
18
00
FE
1C
38
70
FE
ENDCHAR
STARTCHAR U+017D
ENCODING 381
SWIDTH 571 0
DWIDTH 8 0
BBX 7 7 0 0
BITMAP
6C
38
FE
1C
38
70
FE
ENDCHAR
STARTCHAR U+017E
ENCODING 382
SWIDTH 571 0
DWIDTH 8 0
BBX 7 7 0 0
BITMAP
6C
38
FE
1C
38
70
FE
ENDCHAR
STARTCHAR U+017F
ENCODING 383
SWIDTH 571 0
DWIDTH 8 0
BBX 4 7 3 0
BITMAP
70
C0
C0
C0
C0
C0
C0
ENDCHAR
STARTCHAR U+0192
ENCODING 402
SWIDTH 571 0
DWIDTH 8 0
BBX 6 7 1 0
BITMAP
1C
30
FC
30
30
30
E0
ENDCHAR
STARTCHAR U+021A
ENCODING 538
SWIDTH 571 0
DWIDTH 8 0
BBX 6 8 1 -1
BITMAP
FC
30
30
30
30
30
10
60
ENDCHAR
STARTCHAR U+021B
ENCODING 539
SWIDTH 571 0
DWIDTH 8 0
BBX 6 8 1 -1
BITMAP
30
30
FC
30
30
30
10
60
ENDCHAR
STARTCHAR U+02BC
ENCODING 700
SWIDTH 571 0
DWIDTH 8 0
BBX 2 3 0 4
BITMAP
C0
C0
80
ENDCHAR
STARTCHAR U+02C6
ENCODING 710
SWIDTH 571 0
DWIDTH 8 0
BBX 5 2 1 5
BITMAP
70
D8
ENDCHAR
STARTCHAR U+02C7
ENCODING 711
SWIDTH 571 0
DWIDTH 8 0
BBX 5 2 1 5
BITMAP
D8
70
ENDCHAR
STARTCHAR U+02C9
ENCODING 713
SWIDTH 571 0
DWIDTH 8 0
BBX 5 1 1 6
BITMAP
F8
ENDCHAR
STARTCHAR U+02CA
ENCODING 714
SWIDTH 571 0
DWIDTH 8 0
BBX 2 2 3 5
BITMAP
40
80
ENDCHAR
STARTCHAR U+02CB
ENCODING 715
SWIDTH 571 0
DWIDTH 8 0
BBX 2 2 3 5
BITMAP
80
40
ENDCHAR
STARTCHAR U+02D7
ENCODING 727
SWIDTH 571 0
DWIDTH 8 0
BBX 5 1 1 3
BITMAP
F8
ENDCHAR
STARTCHAR U+02D8
ENCODING 728
SWIDTH 571 0
DWIDTH 8 0
BBX 5 2 1 5
BITMAP
88
70
ENDCHAR
STARTCHAR U+02D9
ENCODING 729
SWIDTH 571 0
DWIDTH 8 0
BBX 2 1 3 6
BITMAP
C0
ENDCHAR
STARTCHAR U+02DA
ENCODING 730
SWIDTH 571 0
DWIDTH 8 0
BBX 5 3 1 4
BITMAP
70
D8
70
ENDCHAR
STARTCHAR U+02DB
ENCODING 731
SWIDTH 571 0
DWIDTH 8 0
BBX 3 3 2 -1
BITMAP
40
80
60
ENDCHAR
STARTCHAR U+02DC
ENCODING 732
SWIDTH 571 0
DWIDTH 8 0
BBX 5 2 1 5
BITMAP
68
B0
ENDCHAR
STARTCHAR U+02DD
ENCODING 733
SWIDTH 571 0
DWIDTH 8 0
BBX 5 2 1 5
BITMAP
48
90
ENDCHAR
STARTCHAR U+0300
ENCODING 768
SWIDTH 0 0
DWIDTH 0 0
BBX 2 2 -6 5
BITMAP
80
40
ENDCHAR
STARTCHAR U+0301
ENCODING 769
SWIDTH 0 0
DWIDTH 0 0
BBX 2 2 -5 5
BITMAP
40
80
ENDCHAR
STARTCHAR U+0326
ENCODING 806
SWIDTH 0 0
DWIDTH 0 0
BBX 3 3 -6 -4
BITMAP
60
60
C0
ENDCHAR
STARTCHAR U+0335
ENCODING 821
SWIDTH 0 0
DWIDTH 0 0
BBX 4 1 -6 2
BITMAP
F0
ENDCHAR
STARTCHAR U+037A
ENCODING 890
SWIDTH 571 0
DWIDTH 8 0
BBX 3 2 3 -1
BITMAP
80
60
ENDCHAR
STARTCHAR U+037E
ENCODING 894
SWIDTH 571 0
DWIDTH 8 0
BBX 3 6 1 0
BITMAP
60
60
00
60
60
C0
ENDCHAR
STARTCHAR U+0384
ENCODING 900
SWIDTH 571 0
DWIDTH 8 0
BBX 2 2 3 5
BITMAP
40
80
ENDCHAR
STARTCHAR U+0385
ENCODING 901
SWIDTH 571 0
DWIDTH 8 0
BBX 6 2 1 5
BITMAP
94
20
ENDCHAR
STARTCHAR U+0386
ENCODING 902
SWIDTH 571 0
DWIDTH 8 0
BBX 7 7 0 0
BITMAP
58
BC
66
66
7E
66
66
ENDCHAR
STARTCHAR U+0387
ENCODING 903
SWIDTH 571 0
DWIDTH 8 0
BBX 2 2 2 2
BITMAP
C0
C0
ENDCHAR
STARTCHAR U+0388
ENCODING 904
SWIDTH 571 0
DWIDTH 8 0
BBX 8 7 0 0
BITMAP
7F
B0
30
3C
30
30
3F
ENDCHAR
STARTCHAR U+0389
ENCODING 905
SWIDTH 571 0
DWIDTH 8 0
BBX 8 7 0 0
BITMAP
73
B3
33
3F
33
33
33
ENDCHAR
STARTCHAR U+038A
ENCODING 906
SWIDTH 571 0
DWIDTH 8 0
BBX 7 7 0 0
BITMAP
5E
8C
0C
0C
0C
0C
1E
ENDCHAR
STARTCHAR U+038C
ENCODING 908
SWIDTH 571 0
DWIDTH 8 0
BBX 8 7 0 0
BITMAP
5E
B3
33
33
33
33
1E
ENDCHAR
STARTCHAR U+038E
ENCODING 910
SWIDTH 571 0
DWIDTH 8 0
BBX 8 7 0 0
BITMAP
73
B3
33
1E
0C
0C
0C
ENDCHAR
STARTCHAR U+038F
ENCODING 911
SWIDTH 571 0
DWIDTH 8 0
BBX 8 7 0 0
BITMAP
5C
B6
63
63
63
36
77
ENDCHAR
STARTCHAR U+0390
ENCODING 912
SWIDTH 571 0
DWIDTH 8 0
BBX 6 7 0 0
BITMAP
94
20
70
30
30
30
1C
ENDCHAR
STARTCHAR U+0391
ENCODING 913
SWIDTH 571 0
DWIDTH 8 0
BBX 7 7 0 0
BITMAP
38
6C
C6
C6
FE
C6
C6
ENDCHAR
STARTCHAR U+0392
ENCODING 914
SWIDTH 571 0
DWIDTH 8 0
BBX 7 7 0 0
BITMAP
FC
C6
C6
FC
C6
C6
FC
ENDCHAR
STARTCHAR U+0393
ENCODING 915
SWIDTH 571 0
DWIDTH 8 0
BBX 6 7 1 0
BITMAP
FC
C0
C0
C0
C0
C0
C0
ENDCHAR
STARTCHAR U+0394
ENCODING 916
SWIDTH 571 0
DWIDTH 8 0
BBX 7 7 0 0
BITMAP
38
6C
C6
C6
C6
C6
FE
ENDCHAR
STARTCHAR U+0395
ENCODING 917
SWIDTH 571 0
DWIDTH 8 0
BBX 7 7 0 0
BITMAP
FE
C0
C0
FC
C0
C0
FE
ENDCHAR
STARTCHAR U+0396
ENCODING 918
SWIDTH 571 0
DWIDTH 8 0
BBX 7 7 0 0
BITMAP
FE
0E
1C
38
70
E0
FE
ENDCHAR
STARTCHAR U+0397
ENCODING 919
SWIDTH 571 0
DWIDTH 8 0
BBX 7 7 0 0
BITMAP
C6
C6
C6
FE
C6
C6
C6
ENDCHAR
STARTCHAR U+0398
ENCODING 920
SWIDTH 571 0
DWIDTH 8 0
BBX 7 7 0 0
BITMAP
7C
C6
C6
FE
C6
C6
7C
ENDCHAR
STARTCHAR U+0399
ENCODING 921
SWIDTH 571 0
DWIDTH 8 0
BBX 6 7 1 0
BITMAP
FC
30
30
30
30
30
FC
ENDCHAR
STARTCHAR U+039A
ENCODING 922
SWIDTH 571 0
DWIDTH 8 0
BBX 7 7 0 0
BITMAP
C6
CC
D8
F0
F8
DC
CE
ENDCHAR
STARTCHAR U+039B
ENCODING 923
SWIDTH 571 0
DWIDTH 8 0
BBX 7 7 0 0
BITMAP
38
6C
C6
C6
C6
C6
C6
ENDCHAR
STARTCHAR U+039C
ENCODING 924
SWIDTH 571 0
DWIDTH 8 0
BBX 7 7 0 0
BITMAP
C6
EE
FE
D6
D6
C6
C6
ENDCHAR
STARTCHAR U+039D
ENCODING 925
SWIDTH 571 0
DWIDTH 8 0
BBX 7 7 0 0
BITMAP
C6
E6
F6
DE
CE
C6
C6
ENDCHAR
STARTCHAR U+039E
ENCODING 926
SWIDTH 571 0
DWIDTH 8 0
BBX 7 7 0 0
BITMAP
FE
00
00
7C
00
00
FE
ENDCHAR
STARTCHAR U+039F
ENCODING 927
SWIDTH 571 0
DWIDTH 8 0
BBX 7 7 0 0
BITMAP
7C
C6
C6
C6
C6
C6
7C
ENDCHAR
STARTCHAR U+03A0
ENCODING 928
SWIDTH 571 0
DWIDTH 8 0
BBX 7 7 0 0
BITMAP
FE
C6
C6
C6
C6
C6
C6
ENDCHAR
STARTCHAR U+03A1
ENCODING 929
SWIDTH 571 0
DWIDTH 8 0
BBX 7 7 0 0
BITMAP
FC
C6
C6
C6
FC
C0
C0
ENDCHAR
STARTCHAR U+03A3
ENCODING 931
SWIDTH 571 0
DWIDTH 8 0
BBX 7 7 0 0
BITMAP
FE
66
30
1C
30
66
FE
ENDCHAR
STARTCHAR U+03A4
ENCODING 932
SWIDTH 571 0
DWIDTH 8 0
BBX 6 7 1 0
BITMAP
FC
30
30
30
30
30
30
ENDCHAR
STARTCHAR U+03A5
ENCODING 933
SWIDTH 571 0
DWIDTH 8 0
BBX 6 7 1 0
BITMAP
CC
CC
CC
78
30
30
30
ENDCHAR
STARTCHAR U+03A6
ENCODING 934
SWIDTH 571 0
DWIDTH 8 0
BBX 7 7 0 0
BITMAP
10
7C
D6
D6
D6
7C
10
ENDCHAR
STARTCHAR U+03A7
ENCODING 935
SWIDTH 571 0
DWIDTH 8 0
BBX 7 7 0 0
BITMAP
C6
C6
6C
38
6C
C6
C6
ENDCHAR
STARTCHAR U+03A8
ENCODING 936
SWIDTH 571 0
DWIDTH 8 0
BBX 8 7 0 0
BITMAP
DB
DB
DB
7E
18
18
3C
ENDCHAR
STARTCHAR U+03A9
ENCODING 937
SWIDTH 571 0
DWIDTH 8 0
BBX 7 7 0 0
BITMAP
38
6C
C6
C6
C6
6C
EE
ENDCHAR
STARTCHAR U+03AA
ENCODING 938
SWIDTH 571 0
DWIDTH 8 0
BBX 6 7 1 0
BITMAP
CC
00
FC
30
30
30
FC
ENDCHAR
STARTCHAR U+03AB
ENCODING 939
SWIDTH 571 0
DWIDTH 8 0
BBX 6 7 1 0
BITMAP
CC
00
CC
CC
78
30
30
ENDCHAR
STARTCHAR U+03AC
ENCODING 940
SWIDTH 571 0
DWIDTH 8 0
BBX 7 7 0 0
BITMAP
08
10
7E
C6
C6
C6
7E
ENDCHAR
STARTCHAR U+03AD
ENCODING 941
SWIDTH 571 0
DWIDTH 8 0
BBX 7 7 0 0
BITMAP
08
10
7E
C0
7C
C0
7E
ENDCHAR
STARTCHAR U+03AE
ENCODING 942
SWIDTH 571 0
DWIDTH 8 0
BBX 7 8 0 -1
BITMAP
08
10
DC
66
66
66
66
06
ENDCHAR
STARTCHAR U+03AF
ENCODING 943
SWIDTH 571 0
DWIDTH 8 0
BBX 5 7 1 0
BITMAP
20
40
E0
60
60
60
38
ENDCHAR
STARTCHAR U+03B0
ENCODING 944
SWIDTH 571 0
DWIDTH 8 0
BBX 7 7 0 0
BITMAP
94
20
CC
66
66
66
3C
ENDCHAR
STARTCHAR U+03B1
ENCODING 945
SWIDTH 571 0
DWIDTH 8 0
BBX 7 5 0 0
BITMAP
7E
C6
C6
C6
7E
ENDCHAR
STARTCHAR U+03B2
ENCODING 946
SWIDTH 571 0
DWIDTH 8 0
BBX 7 8 0 -1
BITMAP
7C
C6
C6
FC
C6
C6
FC
C0
ENDCHAR
STARTCHAR U+03B3
ENCODING 947
SWIDTH 571 0
DWIDTH 8 0
BBX 7 6 0 -1
BITMAP
C6
66
66
3C
18
18
ENDCHAR
STARTCHAR U+03B4
ENCODING 948
SWIDTH 571 0
DWIDTH 8 0
BBX 7 7 0 0
BITMAP
0E
18
0C
7E
C6
C6
7C
ENDCHAR
STARTCHAR U+03B5
ENCODING 949
SWIDTH 571 0
DWIDTH 8 0
BBX 7 5 0 0
BITMAP
7E
C0
7C
C0
7E
ENDCHAR
STARTCHAR U+03B6
ENCODING 950
SWIDTH 571 0
DWIDTH 8 0
BBX 7 8 0 -1
BITMAP
7C
30
60
C0
C0
7C
06
0C
ENDCHAR
STARTCHAR U+03B7
ENCODING 951
SWIDTH 571 0
DWIDTH 8 0
BBX 7 6 0 -1
BITMAP
DC
66
66
66
66
06
ENDCHAR
STARTCHAR U+03B8
ENCODING 952
SWIDTH 571 0
DWIDTH 8 0
BBX 7 7 0 0
BITMAP
38
6C
C6
FE
C6
6C
38
ENDCHAR
STARTCHAR U+03B9
ENCODING 953
SWIDTH 571 0
DWIDTH 8 0
BBX 5 5 1 0
BITMAP
E0
60
60
60
38
ENDCHAR
STARTCHAR U+03BA
ENCODING 954
SWIDTH 571 0
DWIDTH 8 0
BBX 7 5 0 0
BITMAP
C6
CC
F8
CC
C6
ENDCHAR
STARTCHAR U+03BB
ENCODING 955
SWIDTH 571 0
DWIDTH 8 0
BBX 7 7 0 0
BITMAP
C0
60
30
38
6C
C6
C6
ENDCHAR
STARTCHAR U+03BC
ENCODING 956
SWIDTH 571 0
DWIDTH 8 0
BBX 7 6 0 -1
BITMAP
CC
CC
CC
CC
F6
C0
ENDCHAR
STARTCHAR U+03BD
ENCODING 957
SWIDTH 571 0
DWIDTH 8 0
BBX 7 5 0 0
BITMAP
C6
66
66
3C
18
ENDCHAR
STARTCHAR U+03BE
ENCODING 958
SWIDTH 571 0
DWIDTH 8 0
BBX 6 8 0 -1
BITMAP
FC
60
38
60
C0
78
0C
18
ENDCHAR
STARTCHAR U+03BF
ENCODING 959
SWIDTH 571 0
DWIDTH 8 0
BBX 7 5 0 0
BITMAP
7C
C6
C6
C6
7C
ENDCHAR
STARTCHAR U+03C0
ENCODING 960
SWIDTH 571 0
DWIDTH 8 0
BBX 7 5 0 0
BITMAP
FE
6C
6C
6C
E6
ENDCHAR
STARTCHAR U+03C1
ENCODING 961
SWIDTH 571 0
DWIDTH 8 0
BBX 7 6 0 -1
BITMAP
7C
C6
C6
FC
C0
C0
ENDCHAR
STARTCHAR U+03C2
ENCODING 962
SWIDTH 571 0
DWIDTH 8 0
BBX 7 6 0 -1
BITMAP
7C
C0
C0
7C
06
7C
ENDCHAR
STARTCHAR U+03C3
ENCODING 963
SWIDTH 571 0
DWIDTH 8 0
BBX 7 5 0 0
BITMAP
7E
D8
CC
CC
78
ENDCHAR
STARTCHAR U+03C4
ENCODING 964
SWIDTH 571 0
DWIDTH 8 0
BBX 6 5 1 0
BITMAP
FC
30
30
30
1C
ENDCHAR
STARTCHAR U+03C5
ENCODING 965
SWIDTH 571 0
DWIDTH 8 0
BBX 7 5 0 0
BITMAP
CC
66
66
66
3C
ENDCHAR
STARTCHAR U+03C6
ENCODING 966
SWIDTH 571 0
DWIDTH 8 0
BBX 7 6 0 -1
BITMAP
4C
D6
D6
D6
7C
10
ENDCHAR
STARTCHAR U+03C7
ENCODING 967
SWIDTH 571 0
DWIDTH 8 0
BBX 7 6 0 -1
BITMAP
C6
6C
38
6C
C6
C6
ENDCHAR
STARTCHAR U+03C8
ENCODING 968
SWIDTH 571 0
DWIDTH 8 0
BBX 8 7 0 -1
BITMAP
18
DB
DB
DB
DB
7E
18
ENDCHAR
STARTCHAR U+03C9
ENCODING 969
SWIDTH 571 0
DWIDTH 8 0
BBX 7 5 0 0
BITMAP
44
D6
D6
D6
6C
ENDCHAR
STARTCHAR U+03CA
ENCODING 970
SWIDTH 571 0
DWIDTH 8 0
BBX 6 7 0 0
BITMAP
D8
00
70
30
30
30
1C
ENDCHAR
STARTCHAR U+03CB
ENCODING 971
SWIDTH 571 0
DWIDTH 8 0
BBX 7 7 0 0
BITMAP
6C
00
CC
66
66
66
3C
ENDCHAR
STARTCHAR U+03CC
ENCODING 972
SWIDTH 571 0
DWIDTH 8 0
BBX 7 7 0 0
BITMAP
08
10
7C
C6
C6
C6
7C
ENDCHAR
STARTCHAR U+03CD
ENCODING 973
SWIDTH 571 0
DWIDTH 8 0
BBX 7 7 0 0
BITMAP
08
10
CC
66
66
66
3C
ENDCHAR
STARTCHAR U+03CE
ENCODING 974
SWIDTH 571 0
DWIDTH 8 0
BBX 7 7 0 0
BITMAP
08
10
44
D6
D6
D6
6C
ENDCHAR
STARTCHAR U+0400
ENCODING 1024
SWIDTH 571 0
DWIDTH 8 0
BBX 7 7 0 0
BITMAP
20
10
FE
C0
FC
C0
FE
ENDCHAR
STARTCHAR U+0401
ENCODING 1025
SWIDTH 571 0
DWIDTH 8 0
BBX 7 7 0 0
BITMAP
6C
00
FE
C0
FC
C0
FE
ENDCHAR
STARTCHAR U+0402
ENCODING 1026
SWIDTH 571 0
DWIDTH 8 0
BBX 7 8 0 -1
BITMAP
F8
60
7C
66
66
66
66
0C
ENDCHAR
STARTCHAR U+0403
ENCODING 1027
SWIDTH 571 0
DWIDTH 8 0
BBX 6 7 1 0
BITMAP
10
20
FC
C4
C0
C0
C0
ENDCHAR
STARTCHAR U+0404
ENCODING 1028
SWIDTH 571 0
DWIDTH 8 0
BBX 7 7 0 0
BITMAP
3C
66
C0
FC
C0
66
3C
ENDCHAR
STARTCHAR U+0405
ENCODING 1029
SWIDTH 571 0
DWIDTH 8 0
BBX 7 7 0 0
BITMAP
7C
C6
C0
7C
06
C6
7C
ENDCHAR
STARTCHAR U+0406
ENCODING 1030
SWIDTH 571 0
DWIDTH 8 0
BBX 6 7 1 0
BITMAP
FC
30
30
30
30
30
FC
ENDCHAR
STARTCHAR U+0407
ENCODING 1031
SWIDTH 571 0
DWIDTH 8 0
BBX 6 7 1 0
BITMAP
CC
00
FC
30
30
30
FC
ENDCHAR
STARTCHAR U+0408
ENCODING 1032
SWIDTH 571 0
DWIDTH 8 0
BBX 7 7 0 0
BITMAP
06
06
06
06
06
C6
7C
ENDCHAR
STARTCHAR U+0409
ENCODING 1033
SWIDTH 571 0
DWIDTH 8 0
BBX 7 7 0 0
BITMAP
78
58
5E
5A
5A
DA
DE
ENDCHAR
STARTCHAR U+040A
ENCODING 1034
SWIDTH 571 0
DWIDTH 8 0
BBX 7 7 0 0
BITMAP
D8
D8
DE
FA
DA
DA
DE
ENDCHAR
STARTCHAR U+040B
ENCODING 1035
SWIDTH 571 0
DWIDTH 8 0
BBX 7 7 0 0
BITMAP
F8
60
7C
66
66
66
66
ENDCHAR
STARTCHAR U+040C
ENCODING 1036
SWIDTH 571 0
DWIDTH 8 0
BBX 7 7 0 0
BITMAP
08
10
C6
C8
FC
C6
C6
ENDCHAR
STARTCHAR U+040D
ENCODING 1037
SWIDTH 571 0
DWIDTH 8 0
BBX 7 7 0 0
BITMAP
20
10
C6
CE
DE
F6
E6
ENDCHAR
STARTCHAR U+040E
ENCODING 1038
SWIDTH 571 0
DWIDTH 8 0
BBX 7 8 0 -1
BITMAP
7C
00
C6
C6
C6
7E
06
7C
ENDCHAR
STARTCHAR U+040F
ENCODING 1039
SWIDTH 571 0
DWIDTH 8 0
BBX 7 8 0 -1
BITMAP
C6
C6
C6
C6
C6
C6
FE
10
ENDCHAR
STARTCHAR U+0410
ENCODING 1040
SWIDTH 571 0
DWIDTH 8 0
BBX 7 7 0 0
BITMAP
38
6C
C6
C6
FE
C6
C6
ENDCHAR
STARTCHAR U+0411
ENCODING 1041
SWIDTH 571 0
DWIDTH 8 0
BBX 7 7 0 0
BITMAP
FC
C0
C0
FC
C6
C6
FC
ENDCHAR
STARTCHAR U+0412
ENCODING 1042
SWIDTH 571 0
DWIDTH 8 0
BBX 7 7 0 0
BITMAP
FC
C6
C6
FC
C6
C6
FC
ENDCHAR
STARTCHAR U+0413
ENCODING 1043
SWIDTH 571 0
DWIDTH 8 0
BBX 6 7 1 0
BITMAP
FC
C4
C0
C0
C0
C0
C0
ENDCHAR
STARTCHAR U+0414
ENCODING 1044
SWIDTH 571 0
DWIDTH 8 0
BBX 8 8 0 -1
BITMAP
3E
26
26
26
66
66
FF
C3
ENDCHAR
STARTCHAR U+0415
ENCODING 1045
SWIDTH 571 0
DWIDTH 8 0
BBX 7 7 0 0
BITMAP
FE
C0
C0
FC
C0
C0
FE
ENDCHAR
STARTCHAR U+0416
ENCODING 1046
SWIDTH 571 0
DWIDTH 8 0
BBX 7 7 0 0
BITMAP
D6
D6
54
38
54
D6
D6
ENDCHAR
STARTCHAR U+0417
ENCODING 1047
SWIDTH 571 0
DWIDTH 8 0
BBX 7 7 0 0
BITMAP
7C
C6
06
3C
06
C6
7C
ENDCHAR
STARTCHAR U+0418
ENCODING 1048
SWIDTH 571 0
DWIDTH 8 0
BBX 7 7 0 0
BITMAP
C6
C6
CE
DE
F6
E6
C6
ENDCHAR
STARTCHAR U+0419
ENCODING 1049
SWIDTH 571 0
DWIDTH 8 0
BBX 7 7 0 0
BITMAP
7C
00
C6
CE
DE
F6
E6
ENDCHAR
STARTCHAR U+041A
ENCODING 1050
SWIDTH 571 0
DWIDTH 8 0
BBX 7 7 0 0
BITMAP
C6
CC
D0
F8
CC
CC
C6
ENDCHAR
STARTCHAR U+041B
ENCODING 1051
SWIDTH 571 0
DWIDTH 8 0
BBX 7 7 0 0
BITMAP
3E
26
26
26
66
E6
C6
ENDCHAR
STARTCHAR U+041C
ENCODING 1052
SWIDTH 571 0
DWIDTH 8 0
BBX 7 7 0 0
BITMAP
C6
EE
FE
D6
D6
C6
C6
ENDCHAR
STARTCHAR U+041D
ENCODING 1053
SWIDTH 571 0
DWIDTH 8 0
BBX 7 7 0 0
BITMAP
C6
C6
C6
FE
C6
C6
C6
ENDCHAR
STARTCHAR U+041E
ENCODING 1054
SWIDTH 571 0
DWIDTH 8 0
BBX 7 7 0 0
BITMAP
7C
C6
C6
C6
C6
C6
7C
ENDCHAR
STARTCHAR U+041F
ENCODING 1055
SWIDTH 571 0
DWIDTH 8 0
BBX 7 7 0 0
BITMAP
FE
C6
C6
C6
C6
C6
C6
ENDCHAR
STARTCHAR U+0420
ENCODING 1056
SWIDTH 571 0
DWIDTH 8 0
BBX 7 7 0 0
BITMAP
FC
C6
C6
C6
FC
C0
C0
ENDCHAR
STARTCHAR U+0421
ENCODING 1057
SWIDTH 571 0
DWIDTH 8 0
BBX 7 7 0 0
BITMAP
3C
66
C0
C0
C0
66
3C
ENDCHAR
STARTCHAR U+0422
ENCODING 1058
SWIDTH 571 0
DWIDTH 8 0
BBX 6 7 1 0
BITMAP
FC
30
30
30
30
30
30
ENDCHAR
STARTCHAR U+0423
ENCODING 1059
SWIDTH 571 0
DWIDTH 8 0
BBX 7 7 0 0
BITMAP
C6
C6
C6
7E
06
C6
7C
ENDCHAR
STARTCHAR U+0424
ENCODING 1060
SWIDTH 571 0
DWIDTH 8 0
BBX 7 7 0 0
BITMAP
10
7C
D6
D6
D6
7C
10
ENDCHAR
STARTCHAR U+0425
ENCODING 1061
SWIDTH 571 0
DWIDTH 8 0
BBX 7 7 0 0
BITMAP
C6
C6
6C
38
6C
C6
C6
ENDCHAR
STARTCHAR U+0426
ENCODING 1062
SWIDTH 571 0
DWIDTH 8 0
BBX 7 8 0 -1
BITMAP
CC
CC
CC
CC
CC
CC
FE
06
ENDCHAR
STARTCHAR U+0427
ENCODING 1063
SWIDTH 571 0
DWIDTH 8 0
BBX 7 7 0 0
BITMAP
C6
C6
C6
7E
06
06
06
ENDCHAR
STARTCHAR U+0428
ENCODING 1064
SWIDTH 571 0
DWIDTH 8 0
BBX 7 7 0 0
BITMAP
D6
D6
D6
D6
D6
D6
FE
ENDCHAR
STARTCHAR U+0429
ENCODING 1065
SWIDTH 571 0
DWIDTH 8 0
BBX 8 8 0 -1
BITMAP
D6
D6
D6
D6
D6
D6
FF
03
ENDCHAR
STARTCHAR U+042A
ENCODING 1066
SWIDTH 571 0
DWIDTH 8 0
BBX 7 7 0 0
BITMAP
E0
60
7C
66
66
66
7C
ENDCHAR
STARTCHAR U+042B
ENCODING 1067
SWIDTH 571 0
DWIDTH 8 0
BBX 7 7 0 0
BITMAP
C6
C6
F6
D6
D6
D6
F6
ENDCHAR
STARTCHAR U+042C
ENCODING 1068
SWIDTH 571 0
DWIDTH 8 0
BBX 7 7 0 0
BITMAP
C0
C0
FC
C6
C6
C6
FC
ENDCHAR
STARTCHAR U+042D
ENCODING 1069
SWIDTH 571 0
DWIDTH 8 0
BBX 7 7 0 0
BITMAP
78
CC
06
7E
06
CC
78
ENDCHAR
STARTCHAR U+042E
ENCODING 1070
SWIDTH 571 0
DWIDTH 8 0
BBX 7 7 0 0
BITMAP
9C
B6
B6
F6
B6
B6
9C
ENDCHAR
STARTCHAR U+042F
ENCODING 1071
SWIDTH 571 0
DWIDTH 8 0
BBX 7 7 0 0
BITMAP
7E
C6
C6
E6
3E
66
E6
ENDCHAR
STARTCHAR U+0430
ENCODING 1072
SWIDTH 571 0
DWIDTH 8 0
BBX 7 5 0 0
BITMAP
7C
06
7E
C6
7E
ENDCHAR
STARTCHAR U+0431
ENCODING 1073
SWIDTH 571 0
DWIDTH 8 0
BBX 7 7 0 0
BITMAP
7E
C0
DC
E6
C6
C6
7C
ENDCHAR
STARTCHAR U+0432
ENCODING 1074
SWIDTH 571 0
DWIDTH 8 0
BBX 7 5 0 0
BITMAP
FC
C6
FC
C6
FC
ENDCHAR
STARTCHAR U+0433
ENCODING 1075
SWIDTH 571 0
DWIDTH 8 0
BBX 6 5 1 0
BITMAP
FC
C4
C0
C0
C0
ENDCHAR
STARTCHAR U+0434
ENCODING 1076
SWIDTH 571 0
DWIDTH 8 0
BBX 8 6 0 -1
BITMAP
3E
26
26
66
FF
C3
ENDCHAR
STARTCHAR U+0435
ENCODING 1077
SWIDTH 571 0
DWIDTH 8 0
BBX 7 5 0 0
BITMAP
7C
C6
FE
C0
7C
ENDCHAR
STARTCHAR U+0436
ENCODING 1078
SWIDTH 571 0
DWIDTH 8 0
BBX 7 5 0 0
BITMAP
D6
D6
7C
D6
D6
ENDCHAR
STARTCHAR U+0437
ENCODING 1079
SWIDTH 571 0
DWIDTH 8 0
BBX 7 5 0 0
BITMAP
7C
C6
1C
C6
7C
ENDCHAR
STARTCHAR U+0438
ENCODING 1080
SWIDTH 571 0
DWIDTH 8 0
BBX 7 5 0 0
BITMAP
C6
CE
D6
E6
C6
ENDCHAR
STARTCHAR U+0439
ENCODING 1081
SWIDTH 571 0
DWIDTH 8 0
BBX 7 7 0 0
BITMAP
7C
00
C6
CE
D6
E6
C6
ENDCHAR
STARTCHAR U+043A
ENCODING 1082
SWIDTH 571 0
DWIDTH 8 0
BBX 7 5 0 0
BITMAP
C6
C8
FC
C6
C6
ENDCHAR
STARTCHAR U+043B
ENCODING 1083
SWIDTH 571 0
DWIDTH 8 0
BBX 7 5 0 0
BITMAP
3E
26
66
E6
C6
ENDCHAR
STARTCHAR U+043C
ENCODING 1084
SWIDTH 571 0
DWIDTH 8 0
BBX 7 5 0 0
BITMAP
C6
EE
D6
D6
C6
ENDCHAR
STARTCHAR U+043D
ENCODING 1085
SWIDTH 571 0
DWIDTH 8 0
BBX 7 5 0 0
BITMAP
C6
C6
FE
C6
C6
ENDCHAR
STARTCHAR U+043E
ENCODING 1086
SWIDTH 571 0
DWIDTH 8 0
BBX 7 5 0 0
BITMAP
7C
C6
C6
C6
7C
ENDCHAR
STARTCHAR U+043F
ENCODING 1087
SWIDTH 571 0
DWIDTH 8 0
BBX 7 5 0 0
BITMAP
FE
C6
C6
C6
C6
ENDCHAR
STARTCHAR U+0440
ENCODING 1088
SWIDTH 571 0
DWIDTH 8 0
BBX 7 6 0 -1
BITMAP
DC
E6
C6
C6
FC
C0
ENDCHAR
STARTCHAR U+0441
ENCODING 1089
SWIDTH 571 0
DWIDTH 8 0
BBX 7 5 0 0
BITMAP
7C
C6
C0
C6
7C
ENDCHAR
STARTCHAR U+0442
ENCODING 1090
SWIDTH 571 0
DWIDTH 8 0
BBX 6 5 1 0
BITMAP
FC
30
30
30
30
ENDCHAR
STARTCHAR U+0443
ENCODING 1091
SWIDTH 571 0
DWIDTH 8 0
BBX 7 6 0 -1
BITMAP
C6
C6
C6
7E
06
7C
ENDCHAR
STARTCHAR U+0444
ENCODING 1092
SWIDTH 571 0
DWIDTH 8 0
BBX 7 7 0 -1
BITMAP
10
7C
D6
D6
D6
7C
10
ENDCHAR
STARTCHAR U+0445
ENCODING 1093
SWIDTH 571 0
DWIDTH 8 0
BBX 7 5 0 0
BITMAP
C6
6C
38
6C
C6
ENDCHAR
STARTCHAR U+0446
ENCODING 1094
SWIDTH 571 0
DWIDTH 8 0
BBX 7 6 0 -1
BITMAP
CC
CC
CC
CC
FE
06
ENDCHAR
STARTCHAR U+0447
ENCODING 1095
SWIDTH 571 0
DWIDTH 8 0
BBX 7 5 0 0
BITMAP
C6
C6
7E
06
06
ENDCHAR
STARTCHAR U+0448
ENCODING 1096
SWIDTH 571 0
DWIDTH 8 0
BBX 7 5 0 0
BITMAP
D6
D6
D6
D6
FE
ENDCHAR
STARTCHAR U+0449
ENCODING 1097
SWIDTH 571 0
DWIDTH 8 0
BBX 8 6 0 -1
BITMAP
D6
D6
D6
D6
FF
03
ENDCHAR
STARTCHAR U+044A
ENCODING 1098
SWIDTH 571 0
DWIDTH 8 0
BBX 7 5 0 0
BITMAP
E0
60
7C
66
7C
ENDCHAR
STARTCHAR U+044B
ENCODING 1099
SWIDTH 571 0
DWIDTH 8 0
BBX 7 5 0 0
BITMAP
C6
C6
F6
D6
F6
ENDCHAR
STARTCHAR U+044C
ENCODING 1100
SWIDTH 571 0
DWIDTH 8 0
BBX 7 5 0 0
BITMAP
C0
C0
FC
C6
FC
ENDCHAR
STARTCHAR U+044D
ENCODING 1101
SWIDTH 571 0
DWIDTH 8 0
BBX 7 5 0 0
BITMAP
7C
C6
1E
C6
7C
ENDCHAR
STARTCHAR U+044E
ENCODING 1102
SWIDTH 571 0
DWIDTH 8 0
BBX 7 5 0 0
BITMAP
9C
B6
F6
B6
9C
ENDCHAR
STARTCHAR U+044F
ENCODING 1103
SWIDTH 571 0
DWIDTH 8 0
BBX 7 5 0 0
BITMAP
7E
C6
7E
C6
C6
ENDCHAR
STARTCHAR U+0450
ENCODING 1104
SWIDTH 571 0
DWIDTH 8 0
BBX 7 7 0 0
BITMAP
20
10
7C
C6
FE
C0
7C
ENDCHAR
STARTCHAR U+0451
ENCODING 1105
SWIDTH 571 0
DWIDTH 8 0
BBX 7 7 0 0
BITMAP
6C
00
7C
C6
FE
C0
7C
ENDCHAR
STARTCHAR U+0452
ENCODING 1106
SWIDTH 571 0
DWIDTH 8 0
BBX 7 8 0 -1
BITMAP
60
F8
60
7C
66
66
66
0C
ENDCHAR
STARTCHAR U+0453
ENCODING 1107
SWIDTH 571 0
DWIDTH 8 0
BBX 6 7 1 0
BITMAP
08
10
FC
C4
C0
C0
C0
ENDCHAR
STARTCHAR U+0454
ENCODING 1108
SWIDTH 571 0
DWIDTH 8 0
BBX 7 5 0 0
BITMAP
7C
C6
F0
C6
7C
ENDCHAR
STARTCHAR U+0455
ENCODING 1109
SWIDTH 571 0
DWIDTH 8 0
BBX 7 5 0 0
BITMAP
7C
C0
7C
06
FC
ENDCHAR
STARTCHAR U+0456
ENCODING 1110
SWIDTH 571 0
DWIDTH 8 0
BBX 6 7 1 0
BITMAP
30
00
70
30
30
30
FC
ENDCHAR
STARTCHAR U+0457
ENCODING 1111
SWIDTH 571 0
DWIDTH 8 0
BBX 6 7 1 0
BITMAP
D8
00
70
30
30
30
FC
ENDCHAR
STARTCHAR U+0458
ENCODING 1112
SWIDTH 571 0
DWIDTH 8 0
BBX 5 8 1 -1
BITMAP
18
00
38
18
18
18
18
F0
ENDCHAR
STARTCHAR U+0459
ENCODING 1113
SWIDTH 571 0
DWIDTH 8 0
BBX 7 5 0 0
BITMAP
78
5E
5A
DA
DE
ENDCHAR
STARTCHAR U+045A
ENCODING 1114
SWIDTH 571 0
DWIDTH 8 0
BBX 7 5 0 0
BITMAP
D8
DE
FA
DA
DE
ENDCHAR
STARTCHAR U+045B
ENCODING 1115
SWIDTH 571 0
DWIDTH 8 0
BBX 7 7 0 0
BITMAP
60
F8
60
7C
66
66
66
ENDCHAR
STARTCHAR U+045C
ENCODING 1116
SWIDTH 571 0
DWIDTH 8 0
BBX 7 7 0 0
BITMAP
08
10
C6
C8
FC
C6
C6
ENDCHAR
STARTCHAR U+045D
ENCODING 1117
SWIDTH 571 0
DWIDTH 8 0
BBX 7 7 0 0
BITMAP
20
10
C6
CE
D6
E6
C6
ENDCHAR
STARTCHAR U+045E
ENCODING 1118
SWIDTH 571 0
DWIDTH 8 0
BBX 7 8 0 -1
BITMAP
7C
00
C6
C6
C6
7E
06
7C
ENDCHAR
STARTCHAR U+045F
ENCODING 1119
SWIDTH 571 0
DWIDTH 8 0
BBX 7 6 0 -1
BITMAP
C6
C6
C6
C6
FE
10
ENDCHAR
STARTCHAR U+0462
ENCODING 1122
SWIDTH 571 0
DWIDTH 8 0
BBX 7 7 0 0
BITMAP
60
F8
60
7C
66
66
7C
ENDCHAR
STARTCHAR U+0463
ENCODING 1123
SWIDTH 571 0
DWIDTH 8 0
BBX 7 7 0 0
BITMAP
60
60
F8
60
7C
66
7C
ENDCHAR
STARTCHAR U+046A
ENCODING 1130
SWIDTH 571 0
DWIDTH 8 0
BBX 7 7 0 0
BITMAP
FE
82
44
38
54
D6
D6
ENDCHAR
STARTCHAR U+046B
ENCODING 1131
SWIDTH 571 0
DWIDTH 8 0
BBX 7 5 0 0
BITMAP
FE
44
38
D6
D6
ENDCHAR
STARTCHAR U+0472
ENCODING 1138
SWIDTH 571 0
DWIDTH 8 0
BBX 7 7 0 0
BITMAP
7C
C6
C6
BA
C6
C6
7C
ENDCHAR
STARTCHAR U+0473
ENCODING 1139
SWIDTH 571 0
DWIDTH 8 0
BBX 7 5 0 0
BITMAP
7C
C6
BA
C6
7C
ENDCHAR
STARTCHAR U+0474
ENCODING 1140
SWIDTH 571 0
DWIDTH 8 0
BBX 7 7 0 0
BITMAP
C6
C6
C4
C4
6C
38
10
ENDCHAR
STARTCHAR U+0475
ENCODING 1141
SWIDTH 571 0
DWIDTH 8 0
BBX 6 5 1 0
BITMAP
CC
C8
C8
78
30
ENDCHAR
STARTCHAR U+0490
ENCODING 1168
SWIDTH 571 0
DWIDTH 8 0
BBX 6 7 1 0
BITMAP
0C
FC
C0
C0
C0
C0
C0
ENDCHAR
STARTCHAR U+0491
ENCODING 1169
SWIDTH 571 0
DWIDTH 8 0
BBX 6 6 1 0
BITMAP
0C
FC
C0
C0
C0
C0
ENDCHAR
STARTCHAR U+0492
ENCODING 1170
SWIDTH 571 0
DWIDTH 8 0
BBX 7 7 0 0
BITMAP
7E
62
60
F8
60
60
60
ENDCHAR
STARTCHAR U+0493
ENCODING 1171
SWIDTH 571 0
DWIDTH 8 0
BBX 7 5 0 0
BITMAP
7E
62
F8
60
60
ENDCHAR
STARTCHAR U+0494
ENCODING 1172
SWIDTH 571 0
DWIDTH 8 0
BBX 6 8 1 -1
BITMAP
FC
C4
C0
F8
CC
CC
CC
18
ENDCHAR
STARTCHAR U+0495
ENCODING 1173
SWIDTH 571 0
DWIDTH 8 0
BBX 6 6 1 -1
BITMAP
FC
C0
F8
CC
CC
18
ENDCHAR
STARTCHAR U+0496
ENCODING 1174
SWIDTH 571 0
DWIDTH 8 0
BBX 8 8 0 -1
BITMAP
D6
D6
54
38
54
D6
D7
03
ENDCHAR
STARTCHAR U+0497
ENCODING 1175
SWIDTH 571 0
DWIDTH 8 0
BBX 8 6 0 -1
BITMAP
D6
D6
7C
D6
D7
03
ENDCHAR
STARTCHAR U+0498
ENCODING 1176
SWIDTH 571 0
DWIDTH 8 0
BBX 7 8 0 -1
BITMAP
7C
C6
06
3C
06
C6
7C
10
ENDCHAR
STARTCHAR U+0499
ENCODING 1177
SWIDTH 571 0
DWIDTH 8 0
BBX 7 6 0 -1
BITMAP
7C
C6
1C
C6
7C
10
ENDCHAR
STARTCHAR U+049A
ENCODING 1178
SWIDTH 571 0
DWIDTH 8 0
BBX 7 8 0 -1
BITMAP
C6
CC
D0
F8
CC
CC
C6
06
ENDCHAR
STARTCHAR U+049B
ENCODING 1179
SWIDTH 571 0
DWIDTH 8 0
BBX 8 6 0 -1
BITMAP
C6
C8
FC
C6
C7
03
ENDCHAR
STARTCHAR U+049C
ENCODING 1180
SWIDTH 571 0
DWIDTH 8 0
BBX 7 7 0 0
BITMAP
C6
C4
D4
F8
D4
C6
C6
ENDCHAR
STARTCHAR U+049D
ENCODING 1181
SWIDTH 571 0
DWIDTH 8 0
BBX 7 5 0 0
BITMAP
C6
D4
F8
D6
C6
ENDCHAR
STARTCHAR U+04A0
ENCODING 1184
SWIDTH 571 0
DWIDTH 8 0
BBX 7 7 0 0
BITMAP
E6
64
68
78
6C
6C
66
ENDCHAR
STARTCHAR U+04A1
ENCODING 1185
SWIDTH 571 0
DWIDTH 8 0
BBX 7 5 0 0
BITMAP
E6
68
7C
66
66
ENDCHAR
STARTCHAR U+04A2
ENCODING 1186
SWIDTH 571 0
DWIDTH 8 0
BBX 8 8 0 -1
BITMAP
C6
C6
C6
FE
C6
C6
C7
03
ENDCHAR
STARTCHAR U+04A3
ENCODING 1187
SWIDTH 571 0
DWIDTH 8 0
BBX 8 6 0 -1
BITMAP
C6
C6
FE
C6
C7
03
ENDCHAR
STARTCHAR U+04A4
ENCODING 1188
SWIDTH 571 0
DWIDTH 8 0
BBX 7 7 0 0
BITMAP
DE
DA
D8
F8
D8
D8
D8
ENDCHAR
STARTCHAR U+04A5
ENCODING 1189
SWIDTH 571 0
DWIDTH 8 0
BBX 7 5 0 0
BITMAP
DE
DA
F8
D8
D8
ENDCHAR
STARTCHAR U+04AA
ENCODING 1194
SWIDTH 571 0
DWIDTH 8 0
BBX 7 8 0 -1
BITMAP
3C
66
C0
C0
C0
66
3C
18
ENDCHAR
STARTCHAR U+04AB
ENCODING 1195
SWIDTH 571 0
DWIDTH 8 0
BBX 7 6 0 -1
BITMAP
7C
C6
C0
C6
7C
10
ENDCHAR
STARTCHAR U+04AC
ENCODING 1196
SWIDTH 571 0
DWIDTH 8 0
BBX 6 8 1 -1
BITMAP
FC
30
30
30
30
30
38
18
ENDCHAR
STARTCHAR U+04AD
ENCODING 1197
SWIDTH 571 0
DWIDTH 8 0
BBX 6 6 1 -1
BITMAP
FC
30
30
30
38
18
ENDCHAR
STARTCHAR U+04AE
ENCODING 1198
SWIDTH 571 0
DWIDTH 8 0
BBX 6 7 1 0
BITMAP
CC
CC
CC
78
30
30
30
ENDCHAR
STARTCHAR U+04AF
ENCODING 1199
SWIDTH 571 0
DWIDTH 8 0
BBX 6 6 1 -1
BITMAP
CC
CC
CC
78
30
30
ENDCHAR
STARTCHAR U+04B0
ENCODING 1200
SWIDTH 571 0
DWIDTH 8 0
BBX 6 7 1 0
BITMAP
CC
CC
CC
78
30
78
30
ENDCHAR
STARTCHAR U+04B1
ENCODING 1201
SWIDTH 571 0
DWIDTH 8 0
BBX 6 6 1 -1
BITMAP
CC
CC
78
30
78
30
ENDCHAR
STARTCHAR U+04B6
ENCODING 1206
SWIDTH 571 0
DWIDTH 8 0
BBX 8 8 0 -1
BITMAP
C6
C6
C6
7E
06
06
07
03
ENDCHAR
STARTCHAR U+04B7
ENCODING 1207
SWIDTH 571 0
DWIDTH 8 0
BBX 8 6 0 -1
BITMAP
C6
C6
7E
06
07
03
ENDCHAR
STARTCHAR U+04B8
ENCODING 1208
SWIDTH 571 0
DWIDTH 8 0
BBX 7 7 0 0
BITMAP
C6
C6
D6
7E
16
06
06
ENDCHAR
STARTCHAR U+04B9
ENCODING 1209
SWIDTH 571 0
DWIDTH 8 0
BBX 7 5 0 0
BITMAP
C6
D6
7E
16
06
ENDCHAR
STARTCHAR U+04BA
ENCODING 1210
SWIDTH 571 0
DWIDTH 8 0
BBX 7 7 1 0
BITMAP
C0
C0
C0
FC
C6
C6
C6
ENDCHAR
STARTCHAR U+04BB
ENCODING 1211
SWIDTH 571 0
DWIDTH 8 0
BBX 7 7 0 0
BITMAP
C0
C0
DC
E6
C6
C6
C6
ENDCHAR
STARTCHAR U+04C0
ENCODING 1216
SWIDTH 571 0
DWIDTH 8 0
BBX 6 7 1 0
BITMAP
FC
30
30
30
30
30
FC
ENDCHAR
STARTCHAR U+04C1
ENCODING 1217
SWIDTH 571 0
DWIDTH 8 0
BBX 7 7 0 0
BITMAP
7C
00
D6
D6
7C
D6
D6
ENDCHAR
STARTCHAR U+04C2
ENCODING 1218
SWIDTH 571 0
DWIDTH 8 0
BBX 7 7 0 0
BITMAP
7C
00
D6
D6
7C
D6
D6
ENDCHAR
STARTCHAR U+04CB
ENCODING 1227
SWIDTH 571 0
DWIDTH 8 0
BBX 8 8 0 -1
BITMAP
C6
C6
C6
7E
06
06
07
03
ENDCHAR
STARTCHAR U+04CC
ENCODING 1228
SWIDTH 571 0
DWIDTH 8 0
BBX 8 6 0 -1
BITMAP
C6
C6
7E
06
07
03
ENDCHAR
STARTCHAR U+04CF
ENCODING 1231
SWIDTH 571 0
DWIDTH 8 0
BBX 6 7 1 0
BITMAP
70
30
30
30
30
30
FC
ENDCHAR
STARTCHAR U+04D0
ENCODING 1232
SWIDTH 571 0
DWIDTH 8 0
BBX 7 7 0 0
BITMAP
7C
00
38
6C
C6
FE
C6
ENDCHAR
STARTCHAR U+04D1
ENCODING 1233
SWIDTH 571 0
DWIDTH 8 0
BBX 7 7 0 0
BITMAP
7C
00
7C
06
7E
C6
7E
ENDCHAR
STARTCHAR U+04D2
ENCODING 1234
SWIDTH 571 0
DWIDTH 8 0
BBX 7 7 0 0
BITMAP
6C
00
38
6C
C6
FE
C6
ENDCHAR
STARTCHAR U+04D3
ENCODING 1235
SWIDTH 571 0
DWIDTH 8 0
BBX 7 7 0 0
BITMAP
6C
00
7C
06
7E
C6
7E
ENDCHAR
STARTCHAR U+04D4
ENCODING 1236
SWIDTH 571 0
DWIDTH 8 0
BBX 7 7 0 0
BITMAP
3E
78
D8
DE
F8
D8
DE
ENDCHAR
STARTCHAR U+04D5
ENCODING 1237
SWIDTH 571 0
DWIDTH 8 0
BBX 7 5 0 0
BITMAP
7C
16
7C
D0
7C
ENDCHAR
STARTCHAR U+04D6
ENCODING 1238
SWIDTH 571 0
DWIDTH 8 0
BBX 7 7 0 0
BITMAP
7C
00
FE
C0
FC
C0
FE
ENDCHAR
STARTCHAR U+04D7
ENCODING 1239
SWIDTH 571 0
DWIDTH 8 0
BBX 7 7 0 0
BITMAP
7C
00
7C
C6
FE
C0
7C
ENDCHAR
STARTCHAR U+04D8
ENCODING 1240
SWIDTH 571 0
DWIDTH 8 0
BBX 7 7 0 0
BITMAP
7C
C6
06
FE
C6
C6
7C
ENDCHAR
STARTCHAR U+04D9
ENCODING 1241
SWIDTH 571 0
DWIDTH 8 0
BBX 7 5 0 0
BITMAP
7C
06
FE
C6
7C
ENDCHAR
STARTCHAR U+04DC
ENCODING 1244
SWIDTH 571 0
DWIDTH 8 0
BBX 7 7 0 0
BITMAP
6C
00
D6
D6
7C
D6
D6
ENDCHAR
STARTCHAR U+04DD
ENCODING 1245
SWIDTH 571 0
DWIDTH 8 0
BBX 7 7 0 0
BITMAP
6C
00
D6
D6
7C
D6
D6
ENDCHAR
STARTCHAR U+04DE
ENCODING 1246
SWIDTH 571 0
DWIDTH 8 0
BBX 7 7 0 0
BITMAP
6C
00
7C
C6
1C
C6
7C
ENDCHAR
STARTCHAR U+04DF
ENCODING 1247
SWIDTH 571 0
DWIDTH 8 0
BBX 7 7 0 0
BITMAP
6C
00
7C
C6
1C
C6
7C
ENDCHAR
STARTCHAR U+04E2
ENCODING 1250
SWIDTH 571 0
DWIDTH 8 0
BBX 7 7 0 0
BITMAP
7C
00
C6
CE
DE
F6
E6
ENDCHAR
STARTCHAR U+04E3
ENCODING 1251
SWIDTH 571 0
DWIDTH 8 0
BBX 7 7 0 0
BITMAP
7C
00
C6
CE
D6
E6
C6
ENDCHAR
STARTCHAR U+04E4
ENCODING 1252
SWIDTH 571 0
DWIDTH 8 0
BBX 7 7 0 0
BITMAP
6C
00
C6
CE
DE
F6
E6
ENDCHAR
STARTCHAR U+04E5
ENCODING 1253
SWIDTH 571 0
DWIDTH 8 0
BBX 7 7 0 0
BITMAP
6C
00
C6
CE
D6
E6
C6
ENDCHAR
STARTCHAR U+04E6
ENCODING 1254
SWIDTH 571 0
DWIDTH 8 0
BBX 7 7 0 0
BITMAP
6C
00
7C
C6
C6
C6
7C
ENDCHAR
STARTCHAR U+04E7
ENCODING 1255
SWIDTH 571 0
DWIDTH 8 0
BBX 7 7 0 0
BITMAP
6C
00
7C
C6
C6
C6
7C
ENDCHAR
STARTCHAR U+04E8
ENCODING 1256
SWIDTH 571 0
DWIDTH 8 0
BBX 7 7 0 0
BITMAP
7C
C6
C6
BA
C6
C6
7C
ENDCHAR
STARTCHAR U+04E9
ENCODING 1257
SWIDTH 571 0
DWIDTH 8 0
BBX 7 5 0 0
BITMAP
7C
C6
BA
C6
7C
ENDCHAR
STARTCHAR U+04EE
ENCODING 1262
SWIDTH 571 0
DWIDTH 8 0
BBX 7 7 0 0
BITMAP
7C
00
C6
C6
7E
06
7C
ENDCHAR
STARTCHAR U+04EF
ENCODING 1263
SWIDTH 571 0
DWIDTH 8 0
BBX 7 8 0 -1
BITMAP
7C
00
C6
C6
C6
7E
06
7C
ENDCHAR
STARTCHAR U+04F0
ENCODING 1264
SWIDTH 571 0
DWIDTH 8 0
BBX 7 7 0 0
BITMAP
6C
00
C6
C6
7E
06
7C
ENDCHAR
STARTCHAR U+04F1
ENCODING 1265
SWIDTH 571 0
DWIDTH 8 0
BBX 7 8 0 -1
BITMAP
6C
00
C6
C6
C6
7E
06
7C
ENDCHAR
STARTCHAR U+04F2
ENCODING 1266
SWIDTH 571 0
DWIDTH 8 0
BBX 7 7 0 0
BITMAP
24
48
C6
C6
7E
06
7C
ENDCHAR
STARTCHAR U+04F3
ENCODING 1267
SWIDTH 571 0
DWIDTH 8 0
BBX 7 8 0 -1
BITMAP
24
48
C6
C6
C6
7E
06
7C
ENDCHAR
STARTCHAR U+04F4
ENCODING 1268
SWIDTH 571 0
DWIDTH 8 0
BBX 7 7 0 0
BITMAP
6C
00
C6
C6
7E
06
06
ENDCHAR
STARTCHAR U+04F5
ENCODING 1269
SWIDTH 571 0
DWIDTH 8 0
BBX 7 7 0 0
BITMAP
6C
00
C6
C6
7E
06
06
ENDCHAR
STARTCHAR U+04F6
ENCODING 1270
SWIDTH 571 0
DWIDTH 8 0
BBX 6 8 1 -1
BITMAP
FC
C4
C0
C0
C0
C0
E0
60
ENDCHAR
STARTCHAR U+04F7
ENCODING 1271
SWIDTH 571 0
DWIDTH 8 0
BBX 6 6 1 -1
BITMAP
FC
C4
C0
C0
E0
60
ENDCHAR
STARTCHAR U+04F8
ENCODING 1272
SWIDTH 571 0
DWIDTH 8 0
BBX 7 7 0 0
BITMAP
6C
00
C6
F6
D6
D6
F6
ENDCHAR
STARTCHAR U+04F9
ENCODING 1273
SWIDTH 571 0
DWIDTH 8 0
BBX 7 7 0 0
BITMAP
6C
00
C6
C6
F6
D6
F6
ENDCHAR
STARTCHAR U+051A
ENCODING 1306
SWIDTH 571 0
DWIDTH 8 0
BBX 7 7 0 0
BITMAP
7C
C6
C6
C6
DE
CC
7A
ENDCHAR
STARTCHAR U+051B
ENCODING 1307
SWIDTH 571 0
DWIDTH 8 0
BBX 7 6 0 -1
BITMAP
7E
C6
C6
7E
06
06
ENDCHAR
STARTCHAR U+051C
ENCODING 1308
SWIDTH 571 0
DWIDTH 8 0
BBX 7 7 0 0
BITMAP
D6
D6
D6
D6
FE
EE
44
ENDCHAR
STARTCHAR U+051D
ENCODING 1309
SWIDTH 571 0
DWIDTH 8 0
BBX 7 5 0 0
BITMAP
D6
D6
D6
D6
6C
ENDCHAR
STARTCHAR U+0524
ENCODING 1316
SWIDTH 571 0
DWIDTH 8 0
BBX 8 8 0 -1
BITMAP
FE
C6
C6
C6
C6
C6
C7
03
ENDCHAR
STARTCHAR U+0525
ENCODING 1317
SWIDTH 571 0
DWIDTH 8 0
BBX 8 6 0 -1
BITMAP
FE
C6
C6
C6
C7
03
ENDCHAR
STARTCHAR U+2013
ENCODING 8211
SWIDTH 571 0
DWIDTH 8 0
BBX 7 1 0 3
BITMAP
FE
ENDCHAR
STARTCHAR U+2014
ENCODING 8212
SWIDTH 571 0
DWIDTH 8 0
BBX 8 1 0 3
BITMAP
FF
ENDCHAR
STARTCHAR U+2015
ENCODING 8213
SWIDTH 571 0
DWIDTH 8 0
BBX 7 1 0 3
BITMAP
FE
ENDCHAR
STARTCHAR U+2018
ENCODING 8216
SWIDTH 571 0
DWIDTH 8 0
BBX 3 3 2 4
BITMAP
60
C0
C0
ENDCHAR
STARTCHAR U+2019
ENCODING 8217
SWIDTH 571 0
DWIDTH 8 0
BBX 3 3 2 4
BITMAP
60
60
C0
ENDCHAR
STARTCHAR U+201A
ENCODING 8218
SWIDTH 571 0
DWIDTH 8 0
BBX 3 3 2 0
BITMAP
60
60
C0
ENDCHAR
STARTCHAR U+201C
ENCODING 8220
SWIDTH 571 0
DWIDTH 8 0
BBX 6 3 1 4
BITMAP
6C
D8
D8
ENDCHAR
STARTCHAR U+201D
ENCODING 8221
SWIDTH 571 0
DWIDTH 8 0
BBX 6 3 1 4
BITMAP
6C
6C
D8
ENDCHAR
STARTCHAR U+201E
ENCODING 8222
SWIDTH 571 0
DWIDTH 8 0
BBX 6 3 0 0
BITMAP
6C
6C
D8
ENDCHAR
STARTCHAR U+2020
ENCODING 8224
SWIDTH 571 0
DWIDTH 8 0
BBX 6 7 1 0
BITMAP
30
30
FC
30
30
30
30
ENDCHAR
STARTCHAR U+2021
ENCODING 8225
SWIDTH 571 0
DWIDTH 8 0
BBX 6 7 1 0
BITMAP
30
30
FC
30
FC
30
30
ENDCHAR
STARTCHAR U+2022
ENCODING 8226
SWIDTH 571 0
DWIDTH 8 0
BBX 4 4 2 1
BITMAP
60
F0
F0
60
ENDCHAR
STARTCHAR U+2026
ENCODING 8230
SWIDTH 571 0
DWIDTH 8 0
BBX 7 2 0 0
BITMAP
92
92
ENDCHAR
STARTCHAR U+2030
ENCODING 8240
SWIDTH 571 0
DWIDTH 8 0
BBX 8 7 0 0
BITMAP
62
A4
C8
10
2F
55
9E
ENDCHAR
STARTCHAR U+2039
ENCODING 8249
SWIDTH 571 0
DWIDTH 8 0
BBX 4 5 2 1
BITMAP
30
60
C0
60
30
ENDCHAR
STARTCHAR U+203A
ENCODING 8250
SWIDTH 571 0
DWIDTH 8 0
BBX 4 5 1 1
BITMAP
C0
60
30
60
C0
ENDCHAR
STARTCHAR U+2044
ENCODING 8260
SWIDTH 571 0
DWIDTH 8 0
BBX 7 7 0 0
BITMAP
02
04
08
10
20
40
80
ENDCHAR
STARTCHAR U+2074
ENCODING 8308
SWIDTH 571 0
DWIDTH 8 0
BBX 3 4 2 3
BITMAP
20
60
E0
20
ENDCHAR
STARTCHAR U+20AC
ENCODING 8364
SWIDTH 571 0
DWIDTH 8 0
BBX 7 7 0 0
BITMAP
1C
36
F8
60
F8
36
1C
ENDCHAR
STARTCHAR U+20AE
ENCODING 8366
SWIDTH 571 0
DWIDTH 8 0
BBX 6 7 1 0
BITMAP
FC
30
38
70
38
70
30
ENDCHAR
STARTCHAR U+20AF
ENCODING 8367
SWIDTH 571 0
DWIDTH 8 0
BBX 7 8 0 -1
BITMAP
60
90
94
9A
9A
9A
EC
08
ENDCHAR
STARTCHAR U+20B4
ENCODING 8372
SWIDTH 571 0
DWIDTH 8 0
BBX 7 7 0 0
BITMAP
78
0C
FE
00
FE
60
3C
ENDCHAR
STARTCHAR U+20B8
ENCODING 8376
SWIDTH 571 0
DWIDTH 8 0
BBX 6 7 1 0
BITMAP
FC
00
FC
30
30
30
30
ENDCHAR
STARTCHAR U+20BD
ENCODING 8381
SWIDTH 571 0
DWIDTH 8 0
BBX 8 7 0 0
BITMAP
7E
63
63
FE
60
F8
60
ENDCHAR
STARTCHAR U+2116
ENCODING 8470
SWIDTH 571 0
DWIDTH 8 0
BBX 7 7 0 0
BITMAP
C4
AA
AA
AA
A4
A0
AE
ENDCHAR
STARTCHAR U+2122
ENCODING 8482
SWIDTH 571 0
DWIDTH 8 0
BBX 6 4 1 3
BITMAP
FC
5C
54
54
ENDCHAR
STARTCHAR U+2190
ENCODING 8592
SWIDTH 571 0
DWIDTH 8 0
BBX 8 7 0 0
BITMAP
10
30
7F
FF
7F
30
10
ENDCHAR
STARTCHAR U+2191
ENCODING 8593
SWIDTH 571 0
DWIDTH 8 0
BBX 7 8 0 -1
BITMAP
10
38
7C
FE
38
38
38
38
ENDCHAR
STARTCHAR U+2192
ENCODING 8594
SWIDTH 571 0
DWIDTH 8 0
BBX 8 7 0 0
BITMAP
08
0C
FE
FF
FE
0C
08
ENDCHAR
STARTCHAR U+2193
ENCODING 8595
SWIDTH 571 0
DWIDTH 8 0
BBX 7 8 0 -1
BITMAP
38
38
38
38
FE
7C
38
10
ENDCHAR
STARTCHAR U+2202
ENCODING 8706
SWIDTH 571 0
DWIDTH 8 0
BBX 7 7 0 0
BITMAP
78
CC
06
7E
C6
C6
7C
ENDCHAR
STARTCHAR U+2206
ENCODING 8710
SWIDTH 571 0
DWIDTH 8 0
BBX 7 7 0 0
BITMAP
38
6C
C6
C6
C6
C6
FE
ENDCHAR
STARTCHAR U+220F
ENCODING 8719
SWIDTH 571 0
DWIDTH 8 0
BBX 7 7 0 0
BITMAP
FE
C6
C6
C6
C6
C6
C6
ENDCHAR
STARTCHAR U+2211
ENCODING 8721
SWIDTH 571 0
DWIDTH 8 0
BBX 7 7 0 0
BITMAP
FE
66
30
1C
30
66
FE
ENDCHAR
STARTCHAR U+2215
ENCODING 8725
SWIDTH 571 0
DWIDTH 8 0
BBX 7 7 0 0
BITMAP
02
04
08
10
20
40
80
ENDCHAR
STARTCHAR U+221A
ENCODING 8730
SWIDTH 571 0
DWIDTH 8 0
BBX 7 7 0 0
BITMAP
1E
18
18
18
D8
78
38
ENDCHAR
STARTCHAR U+221E
ENCODING 8734
SWIDTH 571 0
DWIDTH 8 0
BBX 7 4 0 1
BITMAP
6C
92
92
6C
ENDCHAR
STARTCHAR U+222B
ENCODING 8747
SWIDTH 571 0
DWIDTH 8 0
BBX 6 8 1 -1
BITMAP
18
34
30
30
30
30
B0
60
ENDCHAR
STARTCHAR U+2248
ENCODING 8776
SWIDTH 571 0
DWIDTH 8 0
BBX 6 5 0 1
BITMAP
64
98
00
64
98
ENDCHAR
STARTCHAR U+2260
ENCODING 8800
SWIDTH 571 0
DWIDTH 8 0
BBX 7 7 0 0
BITMAP
02
04
FE
10
FE
40
80
ENDCHAR
STARTCHAR U+2264
ENCODING 8804
SWIDTH 571 0
DWIDTH 8 0
BBX 4 7 2 0
BITMAP
30
60
C0
60
30
00
F0
ENDCHAR
STARTCHAR U+2265
ENCODING 8805
SWIDTH 571 0
DWIDTH 8 0
BBX 4 7 2 0
BITMAP
C0
60
30
60
C0
00
F0
ENDCHAR
STARTCHAR U+25B2
ENCODING 9650
SWIDTH 571 0
DWIDTH 8 0
BBX 7 7 0 0
BITMAP
10
10
38
38
7C
7C
FE
ENDCHAR
STARTCHAR U+25B6
ENCODING 9654
SWIDTH 571 0
DWIDTH 8 0
BBX 7 7 0 0
BITMAP
80
E0
F8
FE
F8
E0
80
ENDCHAR
STARTCHAR U+25BC
ENCODING 9660
SWIDTH 571 0
DWIDTH 8 0
BBX 7 7 0 0
BITMAP
FE
7C
7C
38
38
10
10
ENDCHAR
STARTCHAR U+25C0
ENCODING 9664
SWIDTH 571 0
DWIDTH 8 0
BBX 7 7 0 0
BITMAP
02
0E
3E
FE
3E
0E
02
ENDCHAR
STARTCHAR U+25CA
ENCODING 9674
SWIDTH 571 0
DWIDTH 8 0
BBX 7 7 0 0
BITMAP
10
28
44
82
44
28
10
ENDCHAR
STARTCHAR U+2605
ENCODING 9733
SWIDTH 571 0
DWIDTH 8 0
BBX 7 7 0 0
BITMAP
10
10
FE
7C
38
6C
44
ENDCHAR
STARTCHAR U+2606
ENCODING 9734
SWIDTH 571 0
DWIDTH 8 0
BBX 7 7 0 0
BITMAP
10
10
EE
44
28
7C
44
ENDCHAR
STARTCHAR U+2660
ENCODING 9824
SWIDTH 571 0
DWIDTH 8 0
BBX 7 7 0 0
BITMAP
10
38
7C
FE
FE
38
7C
ENDCHAR
STARTCHAR U+2663
ENCODING 9827
SWIDTH 571 0
DWIDTH 8 0
BBX 6 7 1 0
BITMAP
30
30
CC
CC
30
30
78
ENDCHAR
STARTCHAR U+2665
ENCODING 9829
SWIDTH 571 0
DWIDTH 8 0
BBX 7 7 0 0
BITMAP
6C
FE
FE
FE
7C
38
10
ENDCHAR
STARTCHAR U+2666
ENCODING 9830
SWIDTH 571 0
DWIDTH 8 0
BBX 7 7 0 0
BITMAP
10
38
7C
FE
7C
38
10
ENDCHAR
STARTCHAR U+266A
ENCODING 9834
SWIDTH 571 0
DWIDTH 8 0
BBX 7 7 0 0
BITMAP
10
18
14
12
74
F0
60
ENDCHAR
STARTCHAR U+F100
ENCODING 61696
SWIDTH 571 0
DWIDTH 8 0
BBX 6 7 1 0
BITMAP
FC
84
F4
C4
FC
DC
FC
ENDCHAR
STARTCHAR U+F101
ENCODING 61697
SWIDTH 571 0
DWIDTH 8 0
BBX 5 2 1 0
BITMAP
38
F8
ENDCHAR
STARTCHAR U+F8FF
ENCODING 63743
SWIDTH 571 0
DWIDTH 8 0
BBX 8 7 0 0
BITMAP
08
76
FD
FD
FB
7E
2C
ENDCHAR
STARTCHAR U+FB01
ENCODING 64257
SWIDTH 571 0
DWIDTH 8 0
BBX 7 7 0 0
BITMAP
38
60
FE
66
66
66
66
ENDCHAR
STARTCHAR U+FB02
ENCODING 64258
SWIDTH 571 0
DWIDTH 8 0
BBX 7 7 0 0
BITMAP
3E
66
FE
66
66
66
66
ENDCHAR
ENDFONT
